<mxfile modified="2021-11-04T08:17:10.737Z" host="app.diagrams.net" agent="5.0 (Windows NT 10.0; Win64; x64) AppleWebKit/537.36 (KHTML, like Gecko) Chrome/95.0.4638.69 Safari/537.36" etag="Lr4sJDXR2Lu6IUZ-YUv_" version="15.4.1" type="github">
  <diagram id="7gcUSTIZ7YSJ5vT40chW" name="Page-1">
    <mxGraphModel dx="1349" dy="762" grid="1" gridSize="10" guides="1" tooltips="1" connect="1" arrows="1" fold="0" page="1" pageScale="1" pageWidth="1169" pageHeight="827" math="0" shadow="0">
      <root>
        <mxCell id="0" />
        <mxCell id="1" parent="0" />
        <mxCell id="fDX2wKOXSJ8dmzNtZNU6-90" style="edgeStyle=none;rounded=0;orthogonalLoop=1;jettySize=auto;html=1;entryX=0.085;entryY=1;entryDx=0;entryDy=0;entryPerimeter=0;fontSize=12;startArrow=none;startFill=0;exitX=1;exitY=0;exitDx=0;exitDy=0;" edge="1" parent="1" source="fDX2wKOXSJ8dmzNtZNU6-7" target="SZY12_XKgGBlkoAp8IEY-11">
          <mxGeometry relative="1" as="geometry">
            <mxPoint x="900" y="370" as="sourcePoint" />
            <Array as="points" />
          </mxGeometry>
        </mxCell>
        <mxCell id="fDX2wKOXSJ8dmzNtZNU6-91" style="edgeStyle=none;rounded=0;orthogonalLoop=1;jettySize=auto;html=1;fontSize=12;startArrow=none;startFill=0;" edge="1" parent="1" source="fDX2wKOXSJ8dmzNtZNU6-7" target="fDX2wKOXSJ8dmzNtZNU6-47">
          <mxGeometry relative="1" as="geometry" />
        </mxCell>
        <mxCell id="fDX2wKOXSJ8dmzNtZNU6-95" value="&lt;h1 id=&quot;query-delta-lake-files-using-serverless-sql-pool-in-azure-synapse-analytics&quot; style=&quot;box-sizing: inherit ; margin: -10px 0px 0px ; padding: 0px ; outline-color: inherit ; overflow-wrap: break-word ; line-height: 1.3 ; word-break: break-word ; color: rgb(23 , 23 , 23) ; font-family: &amp;#34;segoe ui&amp;#34; , &amp;#34;segoeui&amp;#34; , &amp;#34;helvetica neue&amp;#34; , &amp;#34;helvetica&amp;#34; , &amp;#34;arial&amp;#34; , sans-serif&quot;&gt;&lt;font style=&quot;font-size: 12px ; font-weight: normal&quot;&gt;using serverless&lt;/font&gt;&lt;/h1&gt;&lt;h1 id=&quot;query-delta-lake-files-using-serverless-sql-pool-in-azure-synapse-analytics&quot; style=&quot;box-sizing: inherit ; margin: -10px 0px 0px ; padding: 0px ; outline-color: inherit ; overflow-wrap: break-word ; line-height: 1.3 ; word-break: break-word ; color: rgb(23 , 23 , 23) ; font-family: &amp;#34;segoe ui&amp;#34; , &amp;#34;segoeui&amp;#34; , &amp;#34;helvetica neue&amp;#34; , &amp;#34;helvetica&amp;#34; , &amp;#34;arial&amp;#34; , sans-serif&quot;&gt;&lt;font style=&quot;font-size: 12px ; font-weight: normal&quot;&gt;SQL pool&lt;/font&gt;&lt;/h1&gt;" style="edgeLabel;html=1;align=center;verticalAlign=middle;resizable=0;points=[];fontSize=12;fontStyle=1" vertex="1" connectable="0" parent="fDX2wKOXSJ8dmzNtZNU6-91">
          <mxGeometry x="-0.1875" relative="1" as="geometry">
            <mxPoint as="offset" />
          </mxGeometry>
        </mxCell>
        <mxCell id="fDX2wKOXSJ8dmzNtZNU6-7" value="" style="swimlane;startSize=0;swimlaneLine=1;strokeWidth=2;perimeterSpacing=0;" vertex="1" parent="1">
          <mxGeometry x="388.5" y="330" width="460" height="303.75" as="geometry">
            <mxRectangle x="20" y="330" width="50" height="40" as="alternateBounds" />
          </mxGeometry>
        </mxCell>
        <mxCell id="fDX2wKOXSJ8dmzNtZNU6-13" value="" style="sketch=0;aspect=fixed;html=1;points=[];align=center;image;fontSize=12;image=img/lib/mscae/Data_Lake_Store.svg;strokeWidth=2;" vertex="1" parent="fDX2wKOXSJ8dmzNtZNU6-7">
          <mxGeometry x="190" y="260" width="50" height="39" as="geometry" />
        </mxCell>
        <mxCell id="fDX2wKOXSJ8dmzNtZNU6-14" value="" style="swimlane;startSize=0;strokeWidth=2;" vertex="1" parent="fDX2wKOXSJ8dmzNtZNU6-7">
          <mxGeometry x="15" y="20" width="430" height="226" as="geometry" />
        </mxCell>
        <mxCell id="fDX2wKOXSJ8dmzNtZNU6-15" value="" style="sketch=0;outlineConnect=0;fontColor=#ffffff;fillColor=#A0522D;strokeColor=#6D1F00;dashed=0;verticalLabelPosition=bottom;verticalAlign=top;align=center;html=1;fontSize=12;fontStyle=0;aspect=fixed;pointerEvents=1;shape=mxgraph.aws4.iot_analytics_data_store;" vertex="1" parent="fDX2wKOXSJ8dmzNtZNU6-14">
          <mxGeometry x="28" y="54" width="54" height="78" as="geometry" />
        </mxCell>
        <mxCell id="fDX2wKOXSJ8dmzNtZNU6-17" value="" style="shape=image;verticalLabelPosition=bottom;verticalAlign=top;imageAspect=0;aspect=fixed;image=data:image/png,iVBORw0KGgoAAAANSUhEUgAAAXIAAAEuCAYAAACTaJmFAAAABGdBTUEAALGPC/xhBQAAACBjSFJNAAB6JgAAgIQAAPoAAACA6AAAdTAAAOpgAAA6mAAAF3CculE8AAAARGVYSWZNTQAqAAAACAACARIAAwAAAAEAAQAAh2kABAAAAAEAAAAmAAAAAAACoAIABAAAAAEAAAFyoAMABAAAAAEAAAEuAAAAAGPjQDYAAAFZaVRYdFhNTDpjb20uYWRvYmUueG1wAAAAAAA8eDp4bXBtZXRhIHhtbG5zOng9ImFkb2JlOm5zOm1ldGEvIiB4OnhtcHRrPSJYTVAgQ29yZSA1LjQuMCI+CiAgIDxyZGY6UkRGIHhtbG5zOnJkZj0iaHR0cDovL3d3dy53My5vcmcvMTk5OS8wMi8yMi1yZGYtc3ludGF4LW5zIyI+CiAgICAgIDxyZGY6RGVzY3JpcHRpb24gcmRmOmFib3V0PSIiCiAgICAgICAgICAgIHhtbG5zOnRpZmY9Imh0dHA6Ly9ucy5hZG9iZS5jb20vdGlmZi8xLjAvIj4KICAgICAgICAgPHRpZmY6T3JpZW50YXRpb24+MTwvdGlmZjpPcmllbnRhdGlvbj4KICAgICAgPC9yZGY6RGVzY3JpcHRpb24+CiAgIDwvcmRmOlJERj4KPC94OnhtcG1ldGE+CkzCJ1kAAEAASURBVHgB7L0JmGVFlS66Ts5ZOVXWPEEV86AMgoC2MyraONvtgAOKKE13a9++Pm+3t73v+r2+3dra79niCKggiCgIqAg4gKKAilDMMtdclVWVWTnP83n/v1bEOTuzsiozT56zz5ARmWcPsWNHrFgR8cfaKyJWJJJwElzgQOBA4EDgQNFyoKxoKQ+EBw4EDgQOBA4oBwKQh4oQOBA4EDhQ5BwIQF7kBRjIDxwIHAgcCEAe6kDgQOBA4ECRcyAAeZEXYCA/cCBwIHAgAHmoA4EDgQOBA0XOgQDkRV6AgfzAgcCBwIEA5KEOBA4EDgQOFDkHApAXeQEG8gMHAgcCBwKQhzoQOBA4EDhQ5BwIQF7kBRjIDxwIHAgcCEAe6kDgQOBA4ECRcyAAeZEXYCA/cCBwIHAgAHmoA4EDgQOBA0XOgQDkRV6AgfzAgcCBwIEA5KEOBA4EDgQOFDkHApAXeQEG8gMHAgcCBwKQhzoQOBA4EDhQ5BwIQF7kBRjIDxwIHAgcqAgsCBwoNQ5wE1rdiDayG20iIYL/4AIHSpIDAchLslgXb6aI3QRsBe1pyO1xfZr34mVWyHnJcCAAeckUZciIB/EJXBwYHZfB8ckUU5qryqW5slzvfbjUw3AROFDkHAhAXuQFuNjITyaTkLYTkkzg7ETspBOx6d8yNCbX7e6Rn+zrky19o2BPUsrKy+Sc5hq5eGOzvGF1ndSU4X2NxVQw+jriZTyJdGSLjbUhv0XMgQQahmsORZyLQPoi4gAAFyBMCCYcs/ICqvEnshsg/s9/bpMf7umWJMVyF85OSVlRWyX/etIq+cimpVLFFxS0LY6pOnTXMyBIcIEDxcCBMGulGEop0KgcMNA2GDeWEMoVkWV4clK+ur1LboA0LpBNysohnwOdE2Vl+CWkvKJM2ofH5H8/3Sq/ax8Atls3wLNJ5OwQTKZJSlolE1gfOFAMHAhAXgylFGhUDhB6vaMKJEmJGl6Aarl1/6B8ewckcQXhMpmcxPPEhN4z3ATuywDs7cPjctm2TpXeCfSTLk4DdsYZUa/4xMI5cKDAORCAvMALKJA3lQMGuJCYE4RgSN7A8taRMbl6Z4d0DY6oFJ6C+ySrN+VtStiTMpmACga/X+4dUB06OwaqVNQhPtW58z7l6Z6FU+BAgXMgAHmBF1AgL8oBoCyka8jWgGWccTsBEfpmDGz+5sCgqlFUSucrRGUFaUVmeqjKhRL7RHJCrob0/gwGQwnmPhwldN6kOgLGE1zgQBFwIAB5ERRSINE4YACLo2IvAT0hz/WPyhVbu2R0jE8Jwjz73zTO0ZtvAa8f7x6SywDmI1C52Hs84wph7EpvwyFwoCg4EIC8KIopEKkcAMgqRLt5h5TGv7OzS57sHQY4E8IVqR2zPBxH/DQMH0Nnjnd/3NIt97T3O+DWmCHwh6FOx8BwKiIOBCAvosJa7KRSkqYUDm03jkm5+8CA3LCnTyZ0quHcuUPI5sBnW/+YXIGZLr3jE/BBjIrlTCG4wIHi4kAA8uIqr0VNrcnMnKVSJr1jE3Llzh7ZMzAqZZhiyGfzcRZXQu5sG5Qf7zWpnH4EcSyumE9UIWzgQN45EIA870UQCJgrBwiyBrYJ+Qlmnty5HwAMT6pD5us0HqzY7x0Zlyt2dMlz7BAQ1yTjYkLBBQ4UEQcCkBdRYS12UichKRNsdw2OyZW7OqR7BLNOMJ0w08XJFLzLysvljwf6oWvvlrFJTEeEH0E+uMCBYuJAAPJiKq1FTCvBldL30MSkXLO7W+5vH9IVm8kk54hnXo3VdgumNF6/p0ce62XHEMTxRVzNijbrmbeAos1yILzgOeBE4tQsFL3n0vyEbO4ekcu292KlpkK7W93pXph3xlwKaAV7Bsbkq1jx2QXdO93UGHnHX1i6T94EV3gcCEBeeGUSKFKdt7epArDV+wTmfCflml2d0jHgV3ACXBei0/bCN8+I+5Y9vfKLVrPDoritaE6wxx/NAQTleaibBcqBAOQFWjCBLANOxVIAKe/uaO2Tn7T04dqrU1B9FeQz5FaS9skJ0ogGUfWPjqKj6JK2kQmkAX/Ebelb/NHrDFMMrwUO5IQDAchzwtYQaaYcIFh6WZwoynuqVPYNwdjVFkjjmGVCZbkOcBLEVVLONDV0CHzf2WRJlJXL79oG5Gs7Ot1XAIlxkjhssQQXOFCoHAhAXqgls0jpoiRMEZlSMkFcz7i4ak+X/P7AMGatQIrmgGQZddlZAFdVzcAAFxJihzGMxUHf39Utj/TQDgupoTEtXuGPBAUXOFCAHAhAXoCFsrhJImRSEAaE4lcO0H4QA5zf39kr45MEb4A8BzopRau0THTlG5k4J21rlwGFDaKi/fLtmL1y7a4ezJAxcPembjNOJhPSwjuBA/PgQADyeTArBI2PA4TYMgD1EDaM+B6k8ad7hjDnmzI4pPCUmoPVV2E/Q8LYIfhXieJ2nUT834Ou/E7ML7fZiHgQDepfCefAgQLhQADyAimIQEaEA0RP4iok8t9gCf2PdvfqQ6pZDG19tVWPyIsZXKq+xCE4EmWMCahvOocmsQFFt7SOjtmKT6C8D5VBKuGVwIGccsC3iJwmEiIPHJgPB1RfDTDvHJ2Uq2BPpXUQs0i4gnM+kSwoLKT+sqT8Fka5ftwyAJWLH34NUL4gtoaXc8aBAOQ5Y22IOBMOGIibxuPGvT1yJ6YcUjLPysDmHAninHH+JTHw+XVYR3wGVhLVTK59EswxlhAscCA+DgQgj4/XIaU5cMBk34RsgxGrr0K10Tc6rnO8bZPlOUSQtSCUvhPydO+Izi0fg2kAU+tkLYEQUeBA1jgQgDxrrAwRZYMDNriYxGBjt2zp4YYRNIqFmGPWauj2EmgdE+OTcj1msNzTSVri/C7IBjdDHIuFAwHIF0tJF0E+PV7/pn1Qvru7R0Z1PqDOLIeuJT4Nue81OPTJFZ97Bkdh+7xbDmAxEvuTOCkpgmILJBYABwKQF0AhLE4SInAIC4Y2X0Skb2xSLt/WJTuh0iiDzVrbeA1hYwVyVyLQpnA+exnQ/DbsRHQLNnkmkLN/MUeqUzfeM5wDB2LnQADy2FkeElQORPCP2mcVvgGKt7X1w6YK528DxCNhVK8RG+tcwinxOyGDsIp4Hb4Sdg6NYZGS71cYAA6EBkA3VoRjfjgQgDw/fA+pqjLcI3VCV3A+h9khX93eIQMY4KSJcT/wmbJ3EpuinADtQBpn2jxPVCRgImBQfrCrVzegYAHaik/kQfPiw4eiDRyInwMByOPneUgRHCCEU+LmjzjIaYc37O3Fbj3YMCIljXNJPn46/ZBs41txOjYPADlXklL9g+S/iW3hHu62gU+zwcIwfp55nLSFtAIH0hwIQJ7mRbiKkwOKyThQ2sXfY9CJX48BRYF9k7QzICWYxuuo7CFt/DFlLkYClSBjV/+wfHNnlwzDdAA7GKPWjvHSGFILHEhzIAB5mhfhKkYO6CIfIiNq4AAW3nxpS4c812eSrsm3rJoESBXX3XVcBLqOQ78EHA1MGvTy73YMet62D3p8/BmUM3wA87hKJ6RzMAcCkB/Mk+ATCwcIfoTCMvkZBjdvBThO0pqhw1BJUK1CRz9WU/9APXN8iKRFMKdkTsjm1wMetWPz569u7ZK9QxPsh+AfAfscUxaiDxyYiQMByGfiSvDLKgcMBqdGSewjXLaOjGEH+y7pGR7HND9KuHQ4qolad62+9kQf5/wQTQtUKq7rAZSg8wGdf+ochE6/SymxVafRd3JOYEggcGAKBwKQT2FHuMk6B4BvBoGRmB3mccrh9bBs+AfMBklwznhqUDMStsAudV47gHwEKz6/vaNHN4MG6Sa0FxitgZzFw4EA5IunrGPPKfHaC9YK5uqh81BURfFE75B8B7NABsf4AECuKorYyZxngqYXx/4T8lTXkFyNr4lB2mEhmM8zphA8cCBbHAhAni1OhngO4kBqrJBPFKtt158yPOCGEddh1/onezHAiVpoKzgZ8CD5nZ6F4xSt+fVAShPyQ6z4vLcDXxSFTnfhcDBQkgMOBCDPAVNDlI4DBDvisoIf53fgQoXXhNzTPixXwxiVPtQBRe5oz+qogXEuUKe02pxy7jjROTwm39zeCdvpwQ5LgZbYoiArAPmiKOY8ZxJgnuRAJsRY2k9pw64739jRIR1Y7p5Ilqt/evu2AgdySt7p3kkHPu9qHZKbMR0xuMCBfHEgAHm+OL9Y0p0Bl2/d3y+/xIYRKnyr/oXMYED+KMIXsiN9RqNmDZc0KXA5NqB4rn9Un0R1/TbPfAYmFHIWA21Fx4EA5EVXZMVDsIGYp5dWBBOyZWBErtrRLSOjmMgHEExDnIGjD124Z1LMH+lFDjFASx3/Y5iOeAUGPidwbyFcznCyBU6Fm6NAWfFzIAB58ZdhweZABwAVrAl4IuM4fBm7/vwJ0w11yl7BUj4/wtghTWAu5U8wePv7jiGbD29ormqYYumi5pfrELqQOBCAvJBKo0Rp4ebFlMbv7xySn7VwBSdQroTQjfPhy2DbdlvfiHx9W6f0wOQtwX1S1Ua02xJc4EBuORCAPLf8XfSx2w70ZdI1OiHfwSyVXQC7MuxQT/ArJce+iUa0fravV+5qG0A/BSSnX4nls5TKrJTyEoC8lEqz4PJiKEY1yh0Y4LwJ+3AmMMtwkuJqiTlbul8mQ1jx+bktnbIV9ljM5EBoYiVW1AWZnVDLCrJYSoMoGqgliO/DXOurAOL92MaNdkokWYrVzgY5mb2H2wfkWuR3whnZKo3SDLkoZA6UYosqZH6XMG1TdQiENcrdwG4F8fsAbmpPRXUQpao3Bg+A5Mz3Nbv75BHYWOc1Z7akuYOr1E3qooTrRchaHBwIQB4Hl0s8DcKUwjZBWn+WYVoleQz2VC7HdMNR3TCCPnSEt1J02ICCXxsA8939yPfWTt1M2nY4Ys6NTzQOVtp8KMWyLew8BSAv7PIpCupMBgU0AZ91BafidELGMaJ5FSwE7sMAp2pUuD6fzlvSsrvSOuoXB8YB0HHdvLcPG0lz4LNMuKEQ882uLOHClFbGQ27yyYEA5PnkfsmkTW04gNwBtJM75Wcc4ASYYTKeSqmp7KZWc6Z8SuSCnRm3ZMZ0y/Jy6R6ehIqlW/ZijKAcgwVkD79cklhBpH1dieQ6ZCP/HAhAnv8yKAEKbE9LqhC4iw4r1QFON9zZIwcGsWwdHvB2jhBmigXvUzJnZotorXwAmCPfv27tlR/AQiKnYerSfWJ96XKgZIqy2DISgLzYSqxA6XVKA1AHiRNg9T1sGPEr2FOhkSwayzI9sSOeyF6KjghtOiQFbUrf6M/kWizdf7xn2E1HVLQnl0qRAyFPeeJAibaoPHFzsSZLcRs/AjjnTj/RN4oNF7plDBsuOG1LhDMIlJLOI94lcalIbh8cOqAJlRNa2ONdI1Cx9MgIxgwczrvcBjAviWIvgEwEIC+AQih6EoBOlD4JUtwt57u7O+XPkEATQDEb15sGWKWsI1eD6w7QWbDIegL55QYU97kNKMgN8otfL8EFDmSDAwHIs8HFRR8HAMn+hfPFr9/RC6nb4Gqxs0a7MPBmP8YKvri1Q9pGuAEF1U3UmS927oT8Z4sDAcizxclFHI/ZUxEZgjR+BaYbtg4BrJyUvojZEsk6oVvknrZ++cn+Xr3WhyX7ZRLJeriMhQMByGNhcyknYnpfiuTf29Mjv6HBKK7L18G8/IqcpIK/fDtOR2THNgwb7Fft7JUt2IBCWZRvwkL6JcOBAOQlU5T5yQjHLSlvbh0Yla9t65LuEWzfBuDKL4QbgJOGfNOhpQIdCmeXc+DzoY4BrHTlBhRGXEHQp0SGQzFzIAB5MZdeIdCOaSkEoxuxqcLT3RjgxORpG8jLL3GkiVJvOUdg8+2UBpPKx4HgP2rpkfu7hkz9FJA836VTEulXlEQuQiZi4QAxR2Fb54VzPNM2jLgHUua3MFeaIGVAng90okzCFaaQwicTsqGuQi7auFTW11bJXe398rO9vTqnm7KxyesaEtdxOPADPFOpvLwMNtnH5FuwP3NyQ7UsrcTm01O6Pk9XAXRAcbAmpJEVDgQgzwobF0kkKXzmxhA0UZuQLuyGc+X2btneC70vbY0nsQKGzoG93cRxRCfCNAGXG+oq5WunrZU3rK6XKojlb19XL+tqKuUrsBNOuuJX/ZAuA2bd4xN8uqGlV85dWScXHtGE2StGkZr41e+bAOJx1JhSSiOoVkqpNHOcF8KLYiUAnFIkJcw7Mbh5074+1f9SEjbAQrWKfUaG/15IyLs2NMlb1jZIDbZfo1tdXSH/eMwyOaWpmjjvIFUfxXNQprlekGoW/A+PjqED7JI9OsPHk2F5AJfhUbKrpnxmwzmLHAhAnkVmlnJUqpIAOPs50OW43jM0IV+HND4yauoKmmdVlFLgirdq6XRHpH9Kcy1UKk2qH+dUdi7GYYdzVG2F/N1RzVIOcCeVsTryxf/IG3R4XCz1YOeAfB8zfRSyAfA8T7VdHiuVIbEi5kC8ra2IGRVIBwcAQrqIBVhEdcD3Ydnvvo5+PKA6BTBEkCJgYU/OOB1SRdqTUgGQ/rujm+UFDVWqvyeI2zPSlZC3rq2TN62rQ1DrkOKkEQQYf9CNGFW0wzIJM7/d8iAHPkGMYj0ldjhHuV6HQ+DAbBwIQD4bh8Jz5QBtaisWKcQk5NHeYWxnBmlyDJCjS/EJlgxKEFfZUt+L40DsS8Lg9xtX1ck7oFKh7l6hUPsTSr/oatADraupko9vWi5rllQj/IRK7XHQp2lQ7aQ2aYw/hPMy8O15bLzxDQwUD0+gM2QQ0Enq+eUTXODAXDkQgHyunArhFKKpwuAKzit3dckzAHPdvo2go+DppHJK5jlziFsBWg+aLDdtWFVbIxdBdUJ9OLsRgqRhIWay6GeEvfZKDDC+EWBfThuzsTnQWkagJp+QqPLHJHN+2fwKYwx3HhjEI3zxeNZZ9mKjMCRU3ByIszYXN6cC9Slp8XYsNb8FZmqpCjCw5EXqJvecIiAq0NmZEvh7NjTK+avqFcQNCz09uMO/n09ejVks/3hMsxzXVINde2g73UKniWaTmO6XfprZFeOLNDXHOIVyzGDZPzCmi6l2D40pPZY1PWaWXHhr0XEgUrsWXd5DhufBARs4TEgrjD7RRG3boLOn4qTdeUS1sKCaHmVuKnsgwYKwo6ATv3jTUqlhbQb+2TREh/UKyhzgpMoiqTvbn9ZYIx/d1IzwmMOtqgwP3DwTQOMDUWYngbnld7X1yY8hmWvK8ZKA/AZX7BwIQF7sJRgD/QouwDgC4W0Am99gCzdd+JMWyWOgwiWhmAtQhmRNEK6uKJePAZRPxdRCT6epJ9JaZs5bca/hbKD+gQ0NcuZyDHzyLX3IQx4QVIkGhfg6+CqW7j8HOyxUXzmK4+NrSKmoORCAvKiLLz7iWVH+jEU/X8fc52E1FBKn3Dotn9ypHpI4/166gotqGg2ggeCE44QOKqbfSUM6rqiWQSjq0j91bLOswEIh9AjwUURNvxTXFeihnjwh5bKlZ0i+tr1DBscB4yAzTxTFlfOQThY5EIA8i8wsxagIJoQ+Yve3MMD5SCdthDiQoV5AtdJx5ZwJQ6GiYCzSVIXphpDG1wKMJwHerMykNUlwjMBgChCxMbICNjwI3a9fXSd/tb5B1TOaKX2beWEsMTl2Oo7WBGa2XLuzD9MRMYgcU/IhmdLgQADy0ijHnOfi91i8ciPslRjoEBqJhqg+DlRzTgATABBLGYGPqSfkbeuXyutXLcENaCEdquohbV7yZjjeO0d6GVR9k1IH3fQFWCK/sZHTERkjnMZhafjXcnrWRO3rggT0DvOrp0O6sMhKH+U08RB5qXAgAHmplGSW8hEFPg5w0vXiU/+/nm+XNuzFqXPGPcQQaSI4qYFzefAgDCl2U321fOjIZllaRaNTNvBJiKaLAiCVFvxLPVDAZxjCeUJe1rxEPnLkUqnU6YjwUQV7NAZ7NWdHphdNE9Mmf4lZQTfvY6fp2WtSO1kdJ7uVgHAoCg4EIC+KYoqHSAVxRQocFDVMSr0VoHJn26AbgItCSfQ6DhopUVO1IvKBIxvlFcswhZBwPAV3p9xEiIr6e2hPSgWivAC2Wc5eXqvrdfSJAmvk1Vxe8gtAf8gazsxL78ikfBsDn89z4BNp00AZHefD6weD3oVD4ECaAwHI07xY9FeECwIJ4XkSiEEhdTv2mvwOtm8bwKc+7+OG7mihKG0As9Oa6+UDGOCspMFxqlUyJgqzRQCSx9VXyUdgn2VJdRk6Bg40ZhxhlNw5XrMJMh/8wZZ7gitOE/Kn9mG5pqVbRrnaSeEcz3nmKbjAgWkcCEA+jSGL+9ajBCXxhIwBQ67A8vHftfcpiHtVSz54RMqox26A/e6/xwrOEwC+/IJQCTpj4E3n96/WNcrrVjVYfDjG5xxQU/9Pl4SqiNf4/QAd6AMY+GR/RdvvZpSM4eLsaJSqcChwDgQgL/ACip886I6BE4SyzT3Dcj1WcBJACwM6knL+mnr5IKRxQrhKsQsAXXYCOvCJDDehg/gUTN2uqIWpW5f/eHjvOg21404uk6Iy/dvWOwIVS7f0RKcjqprFvRMPgSGVIuBAAPIiKKT4SCRgc7ZEAuAxgY2CO2V33whUDdy+LX+OsMXOpbaqQj561FKppilaBVvCuYFfxtRBjeGnK/4F9OQXHlmvPMg4voxeZA6xx4uCNCRuDObq1wZE8Vta+uSXrViAhT99HjA8Iw6X+ksByEu9hOedP5NTf9E6IDfvwYYR834/Ny+UA9QuxZzxly7DdEM4ArjiHoGcWJ6ho1ZG7a0gMtpjueiIpXLaMgx8oqeIL+/MAH5UqVimcEf1ikjf2Jh8GdMR9w6Pq4plAVnNkEPhtWLgQADyYiilHNCYdFKfRU35j9BhOuc27F7DT/quEVjswwhn/sBDjecKtQ4vhJEr2hrn3G9qibkoSKXUlJXDhTIJ+UfEJ2FO+SeQTjXSoVMwVwbwkCto9xxG/Krvd+loHsvkoY4huQqLsXyPxbLitR79q/6MJ8EtPg4EIF98ZW45pkpBrxQOHGBZdbh6V6/c1w6zqgQVDZQrADsE8ymVaroGVjWVCXk/Fu4cXccBzizDKbPmI0V+KZ2/eU2jnIv9Pmnj3GawMBDMFBpROMfhUD6gi+mPQkd+LcYqNndBzYU//63A4tF9hRCQWYiXvjh4ENKYKwcCkM+VUyUVziTvdOGb1M3ZEQ93D8t3Yd1weBzWDQkaRJMU0sXEBJ3B4aRxgOlr19Zj8Q+2b3PJE1az5gwBVRAmaHJ2CO2wfBTWFNfUVcvkBLjABHUmSVZTnkMWVMGi6W/tHoHVSdq5QefigFtJj5Lk8jKHiEOQEuOAbxsllq2Qndk5gFav+lgvmQumGyYxwAkLfNgwogyozmFP/huQx4QSmp6BJ0F1FWaRXHLkMlnlNoyI4tbseTx8CObIsQBXSBM3ZnlQ5E2QyN+1rknvmX9Kv07sPXykWXvKnOKnCVsZ/ailV+7Aqk/S6GVwZoB5ML7YMWskhIiKhgMByIumqLJJKBu8AYDiEwATECZ3tw/IDdwMmOBAdEi56HXKMzcXDjAJVQSsczHd8C9XL1EMzTYVxgWXDY2cXCB2wjwuxgYuPqpJjm+scF8lucnuoWMFI0CHAjVpAi8OYOOJb8H6ZBtswnOCoo1qsOwYDGE1D4eOMTwpXQ4EIC/dsj1MzgwtCZb8o0plHwY2L9veLe1DEwAN+Kp6g1HEjQ6Uim0BzAnYAOJ/wNQs7aCQzpxQQqxELomZPgGmw/Re2ICvASw+KsPAp3Z1Kh3jYVwukmGCNm3A39U2JLfCHjzJJaNc14Mb9YmLspBOgXEgAHmBFUgc5BCU7IfGT+kb9z+GZcM7MGeZk0BUuqNEruiWK4CIopRPw6hiuuUAzw9vXCovasJUQKUwR5wBGaSEnUfK8Qb553TE92xYKudwyiOnyig/XCin8nBvwzMaQSqmrF0oh5DmOMYMvra1U57CYiEOzNJf+aPllbXkQkRFxoEA5EVWYAsnl2DJiYbEJQwoAn+2DY7JFTs6MZ5nc5cJYupyik1p8E6DIBJ0i49egd173o99OEkC8dMkTyMr90cmCKsrSHhdTYV88thl0kAri+CLsYTNhj/lojvHQJXyISmPdQ3K1ZiOqADueiDXBeaeiJBCQXIgAHlBFksuiQIUEZAAUsSAEewYcfXOHnmyZ0TNiys25TL5VNxAJcVBQqPBo8Ik6KqtrJAPYwXnhlpsGMGnClYMHJdzNOHEq/OwqfPb19VT34M7+oAq7ex47V2M9CHtm/H1dB/ml6tD0iqbR8nxZIXzouBAAPJFUczTMskGjwVBPN3XCekOJlMnAOjqPS1o7m6Rmi7mQRVUfTyBEDImTn+NXXvOX8X9NOmFI35GXe6oicZs6RIc8e2Cm0bYur0I0xE3cV9Q99GCPZPwCrsZepBz/OXekbay8qTshInbz2/plM4xjGmQzlg5lPt8hhTmx4EA5PPjV0mEVlAEiHbDvOG3MWd874Bt+BsnWCrwERUNrqHigUyJ2yOWVOlmyithV4WqDTqFSbvU+1wfTPOMVJC+gXlSXglVz/swl70SIGo0e/DG2dGZa7p8/FTxkIr72vrkp3v7XB8SPx2ennDOPwcCkOe/DGKngLhDdcWPMMD58300UevBKU5SSATT45cBZoUAnKoqEnIBjFa9tLkGQMVVlqaJNiSPjzbfoSlUc1ATP9jpko9idekJS20DCnY8pl4hlfHyj1odzvPvg/2Vq3Z1yhZ0xNoRkuDgFiUHApAvsmIn5HCAczsa/3VYit9DeyoEUkVLPo3RueQS6EgojZ/WXAt7Ksuwa48hksclD6zxUQbCmLhTmSgd6P2OwkrPjx+1TJqwOEmNauWlAzQuUOWTKC+X+7EBxfW7e2SMDHSSenx8CikVCgcCkBdKSeSCDgVKHuxHKZfXEwClH2Dhzx+wSjC1gpPp65Q6XuTaKUpqemoiFxhUBXsq3DtzYy3tqVChgTAEUvwUSHNNUiR+Sz2dqn4xgA5y70LYQn8NFygRSd1mziAST9LhI1Hl5pIiuTpMR8TYxtcwxrEZphXIrrRJBStrF8yFD6dS5UAA8lItWYUdlzliDoCGTZsg9RjtqezqkXH4pHedwUMCUyzOgwwMUVGKxO3r1tTJX2GQk08K0XnorMX89o9vWiYra2E/XLnKJz4/cVHO9CZYejpefADb8X2L2/HRDot2OJ6muOgJ6eSbA3G13HzncxGmH2nMTpoklPdiw4ivw0Tt831ugFORMw/wCfISnK2CueurAYqfOnqFcIDTdOaFW1zsdP5i+RK5cGOzSb9kM2ffxCmRK3vYCdIio32x3AQ7LHfRDos+44HqMro8lK2mGw5xciAAeZzcjjsttGrfmHXMDo2bS7xvaOnBA+rG4YhM/CZXF2OjhyROmvhF8G5s5vASbuagNHhaHEkFdCJlXCpfi5HPi6AGOm0pBmXREamqPAKhsZGMjlDVZSCsb2RMvvR8u+yEPRZ22JzxY/Tyqys2ikJCeeJAAPI8MT6OZInR5gCaaMyto+NyJXabGcRsB9rt4EwRfZAKGF+LZ0pUM58MAKeJWoKj7mCfD0D0bJrDmbNDaFTsBdiA4mMYmK3lik/8kfr4nC9YcJGXitQJub9jWG7hdETyUMc7KK3zz4ePj8KQUrwcCEAeL79jTY36Uppm9Th9LUzU/u7AoE1bYeNWSZxgoLBqoBADhUyNiVVC33zxxmWwpwK73/CxylgMoEMaJ+XtaxrkNSuxAYVnMLMViyMHWX7gGouPYI3zKHrGa6A2+1PXEHjJnZRIp3E7FrJCInnjQADyvLE+1wmzEWOGCo5s5I/DyNI13DACi4Bs3jbTJ3wSENjY8ctJmycd3lk6PHKruXNX1soFa+sAOYAikmFXPnCBnkEl+EXwXA/d/qUwJbB6SaV+3VD2jcdZ2aYLTBUsgn4RdlgG5FvcgAKgrrK4Bo2LrnhyH1I5mAMByA/mSYn4UBK3BjwCPS6NLD3ZjYUjKHGqMNIgwOx6sPXnbLLAg4iBD++ov11WXQkQXC5rMd2QqgqjgeBT4E6zYcDJyzeursOPxr0sf2nqXU7onXXHuPGbFjdVVfwKu2Nfv9zfOaS8nBYk65SECAuDAwHIC6McckYFVyTeeWBArsd0Q1144/AlZwlOiTgKIy5hgg0W/Lx9fRMAEGoJ/PGJfhRMebcwb2wzB9CGfFClUokZK5duapK1DZTKox0RA/iMxcN0Jkdm7sNiry/B1O3eYQx84n5S9eX6lCGCK0EOBCAvwUJlllTmRgPuxMrNb0Fv2jYA40oA0KQiZjzAYlpvAhrT0w99YNukrIU9lb8/eqnUsJfhM6WpSIAGtFLqpS1w5ood0dkwKfDfj1qBZfxsTuYPVFdQNTSPL2+6fTTK+fa9PRj4tOmI9rVAaoMrVQ4EIC/RkmXj5af2TZjFcNf+AYA4hr4ILoopcQEL0yFQs1sxRxD8W8zBPg27/5iCgv5muy8uqhwpGZ4MvjVbyAtpLgOAv3t9o5yN+eVJWpGEv3VOGSax4NcwhwabRn8DHfhWGkTTsYcFRxoiKGAOBCAv4MLJlDSDz4RsGxiTK3d2yiAWARFYiONRUM00/nm/hy8DQh7TP2t5rbwXG0Zw9x1K49xWjtAIwmzGnH5LzDuF2F4w6PbJWb6o8z9ySYV8HNMRm6qZLzMRzDz5uTj+jdyeWcAoa9BD9j7fMyxfwYYhI1rwrg/PLQEh9jxxIAB5nhif62QhGEIi65JHsZuMYiZVGPrLdcrR+AlkgDOuQAQ9NDb13wB2x9S5DSPsKUPghwCqy7V39FFBHoyP/JogbHJ6JyVw3p2/Zom8DQuFdNBR8+TyFVs+mB7nAKFZg5fjExNy0+4++X0H6kBsNISE8sGBAOT54HqO0qTqxEBE5AHMWrgFZmr9hhH5AUqFOsKKqnVeC3sqb12LGR4APgWWFLrwnjf+lyMGZStakGkU88Iop9C7FDsbXbihWdZjDGASBcEO1Bz5EJOz3sU6GejK98EUw3e2d8L2/LgSECMlMWU4JEMOBCAv+nrApkkdtC3/IBZ2j09CGu+U3bSngsnF/kPfijuFLrHknKlNYPrjEQ1Vcgl04/XYbUexZsbU46VtRhIy9NQVn3j3lctq5AOQyoHp7L0iYJ5hxPN6DfxTFpLDBtlJgPnPMEbyU0xJ5CM/TmIhcHRql3klEwIXHAcCkBdckcyHINcc1ZyqNWIW6G37eiGN92DaGePiAUCfuqZfPI5J8kf74u/FpgxvwCpImtCdqmeOh5ZYUkFxVCKvf3tUs7wIttXVyLoCpTI/BhJYH+BcWfOOXwV9I5NyFfZl3TowoouZdGiZ5YAANjVR3wqHIuZAAPIiLjxrsZgIh8bKRT4szD2YO3wlGu0gGi+nyHEFpWvZOPHaNfZY8o3ZE1AxHN9UI3+zcammqIqIOEmIJZ+WCDBcBdyNWOn5MWxAkeDXB/JqypcYCeFYiNYGdpn4HiuflHsO9Mn12LDZjGlZV8oulXUkuOLnQADy4i9Dp6ooE2C3fA8Lf+5t4wAnjTsRMV1D9YOdlM5jcJoqkq+tKpO/PWaZHF3HDSMIHXSlCR7aP+mArcg71tTLG1fVO07rE3edyxPS8Umx7FPlb3bfv4el+7YBBUoCRUABwJdILqkKceeeAwHIc8/jnKegUh9a5aM9Q7pbjFriI6CwpVIy44n32rBpwzoex6+B8zHA+X5sGOElcZUFHdjFQ0W8qTCfZPMy2Fb/H8cuhx0Wty1cLGSgrLVFo7PW8keiQGxdcYo6QBv0X9vWJQMYQyGdk/q1BmKDK3oOBCAv2iK0BsgjcXoEU82uwR6ce/tHVSizFZzMHEJoUDZu3uuBFzlzTIHg0QQVAzdgaMbIH2fTqIuJBpdarCftpLRALLMvxQKhCzA2cHCWPTOyTR7inR51ZDEWn3H85Bf8YkPSlMY5fTK44udAAPKiKkO2Upu/TKnPZiCgOaIt3tY6IDdjH04viFmDtvCWRV/UuVCteDDg2f2gML5wQ5O8hqsdCRkgrNQ/5QmMdCwDlk01eQAgPxkDn9yAQld8msis4XLXqfryUGpwsDrDmTVdwxPyVawv2I+NKFSn7ygJp+LmgG/dxZ2LRUA9gcGAglIUM6wKFMWCNmwU8c1tsKcyPIpPa5veFy9LlCAkiQFWYAiXqZ/WtEQ+smmpNGDAD4QT2VJnHzpeGnOfGiVy7nik+mdeI88vwkDvRfgqqauoRP4J5uQDeUJG5Z6maApag5DsgzCidtWubks/ivnRwOG6qDgQgLwoisukWW1zCuhsg/wjjifkekw1vK+9HyDKQa1cSNyzMcnQgEfuLl9VkZD3Yxn+6bCnYioVo5RHBbmYAWw26rP33DJGPrBctJfF+X0YIzhnRZ0WjapfCObaG8dbVgrk6GkHYZP+WqjhnuA6A1Bpg+LZ40KIKX4OBCCPn+cZpOhAAe1fBTkFAszPxqfyo91D8j1sGDEywZV72lRd/HGhJdPhz2ik4H3OKuqGG+BHCRRPcOBTOl5ZF2T3pXQ0LuDIQqLDiSC5toa215tkOTaigIYlxQtljoWM4Wg06XZ6aPXP9WCjEUjlgxNWRiy34IqXAwHIi6LsrJXxyJ8X6IYnx+W72DDi4fZhaFQAEnnJCwACRCk8Aw2aYU/lUswZ34ANIyYAaAQu2n3RrZ5VCtXAeaE094kSLMEJV0A2e8jK7M2rGuTNaxqh+jJAteklLE3+4nBMB2lPWJNnZ3o5lu7fxa3/tPRwiouUOLK7yNIIQF4MBQ6ANB05VCxobCp3Q8r9Q8eo/LClXzGBz80Rzg1QYsmaJuvTLpNxqHa2DIxL79iEWjgsB3DR0mG5o0lhDADv34iFxpgS0e8O/WRCGekZPswofrVQN/0D5tMfX+82oEho14aHHthzTaTjOAhiR8OvpMHRpFyhdlgmbGwjLlJyndVFGH8CAFCKbaqkilKBGznSVZqwfc321joyLpc81ia37nY7/xxUivSIq2UyHQ7FAqBRnRohlb8Nu/8cgV1zjoUBqZPrq+SEhmoYlfJyg9FFCrX24ZaAB2xJOaM+mofodSpYgV2QRnNGrcsnbuxJUv7t2Q757JOttuWeejKMPdXy4qWiv4soRyflNWw4cAz2itPXYnZNs4K5DaH7gvDnHBERos0aBwKQZ42VuY1IwRyNnIIem9cV2DTgvz2+T0bHDQQ8FOSWinnEDt0rkbkGKzs3YH/OdZhTfjJmcLxiWbW8bFk99MYVgkdwBhbUJfOPU+SsQ9DXLUEFt3mkXXBBzSol8/b84Khc8vA++e3+PtuxydNKNrBw6fQ69yXqkzl9Wa3ceNYGOQ4drgkN+sQRohSFQ4FzIAB5gReQJ4/NWoEOrXwLdn25YHOLbMY0Mt2+zQcqoLOqgkG02mSk9S5OX8HWbisgra/B4N9pS6vl3FW18uKlS+QI3DdX+RWnSdWp63eHwxM94cBzMTt2VuTLDXt65WKA+QDUT5SMDbJ59DlED8dPlRxL5j41qr7+6cSV8v+cyO3q6GsqPKXHBypmxi8C2gOQF0UhA8K1nfOckP/9dLt84dk2BTySb0BQmBlR+Zo6WZBH7X3SgzqwqgYmdptryuVVy7ET/ao6tRh4IszdVjkwYceVBjfGVNyOqjHmohtfUX/zyF750e4udMQwM+wlceUQc+lzmvuSZUpUh22E6us7Z6yT12KapO9wjNueluLmfalTH4C8CEqYzZmSLQcM78GGERdv3iNbemlr3HTSRZAFkGig7GHKwAt+XEKOBTLAMzllaa28GqD+qpV18gpsCbfCSempYRwAfHHCCvLJf0VNZBn5uBtfUx95pEV29GOne6z29B21TTaPN5dKFuj7wKZm+cqpqzGWUa70pCbYFEcFW9RUBiAvguJXIENr64exo48/vl+uxUyDsrJylZwKmnwHXCkJE2ChiEaJG8hlS9bNzz/iPMWm2jJ5GZb2vwbWA9+1rkE2YsDUO2po+DqjLibn88f5OrymbP7pp9rkv547oNdEeStnDRlr1vSrCVQ1VGLD5tPXy/tgVoB248tVtaMDGbHSExKbPwcCkM+fZ7G/wXnYEL7lRmzd9rGH9knf6JiimSks4m/4c2eAg1s13ITrSYCCgoOnmc95zZxQR26LU3Q1KDJdCwuCL2iqkldigdGH1jeLql2cmMgwxSQxTlUTMb9JeQ7S+Dv+tFee6sZYB9RMXBWbL6d9KzrRl0PF9f2z1smRWAegqiDMkgqu8DkQgLxAykibMA5sUAZuBoImpSVkx+CIXPjQXrmvFZbrikqlMn8Gm4QIWFd9AxFbZF1tjXxoYxMMcTViLna1grgOpOpj8MrYpYmRl5Hb+RMQwxsEdubzGmwCcumjLWpLnn1aCvDZ4TEjMTnjF1Rc6HT/45TV8sljljseGm/Z8ZCrSrdeFjqHY2JcgSQTutsCKQg2ETWoFGm92o7dQOGNWPjzh/YhDI6hfSvAFQjhOSCDYKHbkaFXU/sxQPK9g8PyxWfa5Pz792Cw94Dc3zUMRvA5Zj4DfAwAHfaBP8ajGJFw3nwwaDx/bZ2chxWfSajNjHrSjF/MpGM+jaY7ga+C/3dLtzzQPayqL9sKzhPDzie4QuRAAPKCKRU0EepJKfVwVIztWu8S8ufeYdjF6NJt04xc3+hLtFkxWwRj/Km2AfxIoAfj1PTtPcPy70+3yQcx4Pv/bWmXbZiKCTlSAcZ3cN62i783nhXW0WVRVkJ99PfY43MN5tkju8iHPskDscpt/SJsHRjGdoHd+kVk3U2knmkfE7nPA6UhyYM5EID8YJ7kyYet2Es+iulKxwB0xV/Y2gkjR5ilAunTZCIWG3+K9nmiN1fJAiTYkVHHxC8P1a+bhE2vRBlkRyjHt/SOyL88CUB/qEWuhnpiAFP69DnIMi4a+OeKymzEq1lERC/HDJ13bFgKupkHZFLLNhspzDUOcow/1inrSu7ABhS37YdFTUeL1Tt9DBqNw7gLrkA4EIC8QAqCZLB5sBlrAweAsUn9tn1A7sAgJz951fk2pOoVhi5B5/OooMYb8yCYJCGZU3dOwBuHiP6HtgH570/sl4se2Sf3dQzqbAt2dxP4FXo3p6WHrC3BQOeHof8/pRlmf0G0ZjvWYjUAZ5IK2CCgFV86X97SIS1DnB5Jf18oOLOjDa6gOBCAvGCKwyQhksMmw7nF+2FP5fLtXdI5NA4p1D59VWqnRFSybQl5Q17TLppR+Dt0TrKjQ+0tw8BvD/j0I5hk/TAGg7/4fIfsBL+4QpFbbERjSsdZOFeUbtkxnb20Ri7etEw4dV53E4qVcs8lnslg+5q5t2NAboJkro6PFMDB9GiR2NNwzDMHApDnuQCmJg9ZEo2awjbbyg3Yuu1X+zBLBYhln7auBeVVItIWHSF7+n3k0UyXU2hnfqI/9wKjTPk7P48eqmqBH8JwLIEfKpRg+dvaNyb/8ucD8vFH98mvD/QL9k/AWwdL5hq9jzbvZxJvRLxrXaO8FAuiNHOq0nAPYgF1zxWrg6RpHCbur4ZNn4exqbcNKrNjZDgfNu/MCwQ4DgQgL6SqgPZBeYjzo5/E7i1X7uiRUW4YAamtcJoOiCNqsqUrKLtr8pGXKccbVq8pnqmnepF6NBM4TPfzHPAv+bPBippmhSSfgFLltr198oHNe+VzUA10jMJEKxJj56gwpNHiKi87KU3Nvr9jTkjbOpgr+L+OWy5NNVgAxeX8mkUeXDONSzeNJMkmjkU81omBdm5cgh6T34xWCkqYJz+cC4ADAcgLoBA8CQQjSj5D0P1etbNTnurhnHFrVD5M/s9s5ag2bNEKLGzU/NEv2sAZgDa3renjwp5TbcJg6s2Deyd1z4AZOKTNKPhjR7h/aFQ+j+mKn4Cp34d0Kp2Rm5LPDSUzSCi7rxDAlQOO+DdgQc7b1mI6YiqZ9FXKK6YLpQ18+tGePvkjTEOQzsSUMo6JkJDMrBwIQD4ri+INwMbyELZvuwZ7KipOpqTeeOk4dGoEFuosPMDwG8L5Uey15o4g2uwj0eAZ33FBNRzDpCRjhqfzZ7ub29GlS1LQoegcdMSDjeLlB5i2+Z6HW+TW/QOaNDtKlS0LBJCYW6UHdJH8KvRCH8W2cI0wS8CVntY94YnyLd7myiRZHPsw4Plf2zqke4xfhyBFH/BhcIXCgXhrRqHkugDpoPTDVtI+MiGXbe2SjpFR3PpP2UJoOTZXW2EQjRmksU3jR38OjnFaIJeV8Gef5QRNSsfqF30H/hyoTHDAMhWPK5RUB+Hu53rijjskiHykdK6qCcaflK2QJi95aI/855ZOU7UgnGL+XOPOYTgtdSAjwVGnl+L8EhgP+/Sxy6RCLfsqd0GBZs5RwrficuhMUEi/aR2Q61tgQx3J+loZFwUhndk5EIB8dh7FE4INGSn9vLVffoFNB9JIM009kUNqrJEaHdFrS9JWTxJCKCnqDzep6wlIlJjzzulzdp7AGVv9qh+k5HHAObJi72FyIAISvHRwl9CgAA77jgDhaNq8nt0hFNU97EIUEclMGyBOsjOBd+vwmPzfmHf+qT+3yh5ImOxgOFCK/7w667dIr0nf7NArQfP71zfJWcvqwDMDUv2a4UAv86cciodsn1o/BIzLd3TCVERUwIiHhpDK7ByomD1ICJFrDmhjQePdNjAiV0MV0I/pFjZThU9YRDxn13mARLLqFNRSyfgLPHTP+eFPw1YExWbs7tNUUSbLIDKuxDXBuBn3q7ETEBfwlDl1EJd3w5iPxl8GYOXipn0jIzIOlcogrncPj8M297h0DU9ir09CGAHeUzaVBgIvHaPzT8yHRz7kD098hhTUKXeDcjyiZD46OSHfxSyM7YNj8u8vWC0va67Fc4vPRa/3cR4I317mNvLJhUk5Eis9P4q55c9gJWu31gfSmR8qyXOy9VmYRbhyV4/8nxNW4N463Dh5FdI6NAeC0axD8yZnTwhEvkly8E0VEmgt/xNmTb+EPR2Jg5BlccBFCpg8fPk3Sd50P95P92M4S88aH95HWgQLDaqgi3eAlFWYk10JyqpxrsL+mifW1cimJeW6LdtagPQRtZXSiAkVtQDwWgBzLcLVAcDpavF+fTkkahUxD6aRzR57/UofgHsS+eJ1F3SunA0xADsjLcOjWHwyIc/2jcgWSH3bYBmQ/iMTE/ghAaIJHVmCJLnikF70tUe4YtpMWqVz5hN5VFLUk2/jLQD75Li8ANP8/vPk1bqhhQZCEA3KCPVCg+flwC6NRHAD64sebZUfYwMK+4JI5yNWwshW8Jyd7Ebsw3rVi9bJubAZn9qAgnVIy51U5Zl5sTKmcBILQJ6HsqAES1BF09Bdfrh45YHuQXnvAy2yvRef/Wg0CuSpRhFtwAROtiz8FMFmajj0I3QyHYYDeOGk4d3SwSrY+FgBsG7EJgKNkKpPqa+QFzbWyDpsxXYidotpwDOuOKwBglQjyWoQZTQjnpRjpDOlnwowr4sxEElJfQiSM0F85+C4PN03LJshlW4FsLdhoc8BSKedWACEZZ3a+TB5glwS4K0ASL5qnpk06aObSiP5PQE+HI09Kv/15FVywYYmxIG3FZAs/NQ3NJJYDyxaZuV3MJR24ebdsgsrLXVbv0OWeS7IIxfwY4eo4x+oR1CXvf+oZfLN09dIAzpybhCi/EeN5XiJSiH5Zl4uWFHgcQYgj72APLgQZnANAOoFKH0a+tvLMRinJmqJuqnG4BpTCpT8+z6AhfXTwnQgio/grWZgCU5wlQDso2rLZT2k6pWYEXEKwPr0xmrdcHdDbYWCdQXFrikumha6Ftzy68EGu+yZNl5PypR3D39DPLKpgHxZY7FOJ51x+JND6OyAIxTKtwLMHsDn/eauEXkGhsSoItkFSX6c4j1IpzrK8m+grBQqIvLK540JG/hMAsyPrKuSz5y0Qt6/oVmWOC3WwR0WXo/Zebxmh/NPT7XKZc91gRNRnsVEkNYl4x1gWylogBBwzZnr5K1rGkATFW6gLFUHUhcxERiSIQcCkOetHgDGUP8pzfwQKzg/9lArdMjjaBJsFPglOWVBWxHOvHcNhANezttL9SpJahgLykvi1hGw230Wdq4/noBdVw2Ju0qBuxnStkWCU8Rp2kiHXwOmAfXp484nr+GZABxP/oF6zP3AtLTzcUlYvnEDBLPYrbvgY/LIEnMZw10PFvo8ATXM0wD3x7tHAO5D8ihWIA5jUBPr9jX/zGMU2BlLlI+Mlx8oTQCmTx23Uj59PGaKgDWaLWWyvpG3gyndRJ7BV8kHscBpc+eIdnbGn5jIcl90Wl/ALwAGiigpZ2FvzxvOWi9HQZfPTiddDbSwYiIuJOM5EIDccyK2s0KYNgZOzzswOi5//cAeuQfznKdsGJECbtds2aAITPCnusSkbUc04uGGxbUw1HEa1CPnwPjSMQDt4wHeJ0LiXAvVSdQpVDJ+/Gus7BsUwChfsSEajZokQ7hw+tRu1S8a57yv2frhNH3Gr2hAiTrtDCCMFg2przAEB4MZjh2SyBj8n+0fkSchpT+AqYb3dQzJE72DMsQHjBGBneJF04sSz2g4VbEZvPv0iavl40dDMtdFWMYJxp9PZ2o4wSrfbvm7R/erasOXRzx0OR5qPXC9nHIRdstPXSOfPHY5yCCvUE6uTmnRxENcSMVxIAB57FVBYRSpUr+YlC9t7ZDPYEqc7isANLWl42gKimJGHKUgm8VCb87hgz901g0QH5uh0z57WbW8dXWjvBDS92ootGnjupKKdudMJUIYJqZNBSgDUGusqSe4dW0Sb/CZPU9Ls86Pg4qZtlpGQec6KNd1mF8qTZ8HFxhE6TRFnh1NPFOy9rRTz74XOvTHoIL5IZbq3wmbKz0YLR0zwytShj6NKl/jBuJFXNSPU82yEtub3XjOBnk1pE2mmGnWXCaycgKp2l3thQrpYlh4/EVLL4qei57icuQCueE5YqDNz8mTUN9uOOdI/dJLVddCYFpcrCmgdKaKagVEWKmSogCiwCzSBoC5FtO5MDkBYEKVBjXBaAlAGpU4FXQN8DmfmBt3roeEfeSSajmzqVpeg5kDL4LVvGbov5ugLvFgxkY3SbSiD+Iw1US0hflGiRBMTtPkc/rDabq8wL2Cp8Ws4IlgdqcXDDTNpeOe9mDqLZPT9PSCFETueWc+6h25ZtpqVwXJkHaGY4o6yx0XnIO9EeMA/L0ay92fh6T+q7Y++QUWtDzWOyo9WLrPzw8d3NS4NIvwKpMeFMSjGFglkBeKY+5Ykutgf+VvjloqD6GDOoBBXyu36VSSIeRGtp0rD0ZdBmp4Bg+fgT2gr0AQ+fKpq3XWknpr0tGyyzYtIb6ZOBCAfCau5NBPm5qr53ugz+UcahVKKdz6NkjJnM0XU+84G6MJg5GnY7XfGctq5DXYXf7lzUugCqC0mm4wfJWSN52Bd/qZ+UaP/pm9oMCsXt7fhQWIe6chCfC8SHs72EBXoAFwMHT1rx18RpBUFJF4GKlJ5amnB7/rwqfptSD09n58W6VDeDbii+VMdHT8Xbpphfy4tU9ux2KrX+Pcgzns1KXbu6YrJ+2r8YVTSE7zBYII5m9YVa873H8VpnqZT3PMAZ/S8TrbLp2SRq9fQyxmG0m5Gas9X7+6Xt61rkFtweti1GyTEOKblQOFVWtnJbdEAhAg8b8GoLGkGmP+g5RyCGTw1HYzgRkU5XLGinqoTWrlbOi8X7psCXY2x4Ib50y14O+sCc+GoenQTCbdQNn87Y5HB9YMzAc8uaCK655E9cNBw4B2BLKZM+4lfdO9qIFwzTzyMZFW/ZjnVDI+OX0z0wOj93zwqTN3zVUJ+cgRTfKetfWx7OFvAABAAElEQVRye1uD3LqvT34KUOeKRft4KZc3r22QcwtFGlficUBmyH927LXoeD585FK5DV8XW2laFn05B2uVg8r2dI4z5d9c3+PsJX7VdELlcw1swb8c9XQtrDeyDkdrwFzjC+EWxoGgI18Y/zJ4W1slAI0gltS9ET/z5AFIiJhtgRZQW1mBRSq1kHCaoDaplaPryqFRoZxDdYlLjo2bTYaomGGrMSB3IKEgzBQsOgNbFzFPSrJ/auGMEovFJv3x2s92MR8/h93FqjR7gpl/S4Hx8uf14RZzNo9KpXYiuvRK0+rBlE/uvnQ3dhjqGJmUEzAd8wNHNmEBVLqzzCYNGcWlLOfB85ylPimfe65DPvdUuwzji41orh0ReZhhXciINryUoAoQf1VYb/AFDHx+4uhlGlXMZGRKfkm9F4A89uJ0cKd68qRufnAvbD5vxjZlVGaf0VQLNUq1rOBWMXAKj2ijKZhzrcSkXwTIsNWQCv8yo6CQbJCBG97jR3/q7rPiECFkX43YogQEsANJRY4rn2jKL1sXjBjRWw+lOeeiILoBADpwXOqhhlFtlQbFszRhGi4fB2OH0a5fMyCCZHdiptM7H2yR3+GrQhcJqcjua4gLn2uCHX80aaz4PH15jXz/xevl5AZYbQTzCoB9ueZAQcUfgDz24iA0o7EBVLS6+xpvrTZFja3sxOerb5ecP87mwVd5du/511MvzuHCR6kzVhCechWPFRqZBwSLiDZQ+jClZhC/MdDci2X10C4r/frNb8FIFmIhjTaFsB5SGpfwc/CRIFmH65TOw73DnHAMV3nh8ud5kkm+UtFGLpTXes8vGJc3p98l0TYQTBr4TxoLC4Z8XbFNqCGRowxI8w2YvXIRtrYb5gpXUM5vDXNkaFzOSsm+LZPyTyeukP9z0motc1KQrTKMKzfFnE4A8jyUnoELIIvgAfOrHND0kq+B6zRAAZh6VQQlZ3UKOLyaW3NJvWZvz3jcOTAmeyHt7cLS+J2Y3TGIWRwHRiflAAdlsQBnGCCyH0avKMHyiwD/cIyZTdmuPRCvwiyaJsymqcGn/yqMA3BmzaqaSlmO6ZHrMK+d4wPHYYl8o9lq1benH+ZC8/R3Dron7+BJWj3UGc/MP8U/hCPt9LWFVgfFlBcPPx2VkjhpI5Dzmoa0PvVEq1wFO+GcceP5n8pPzqll4buOGx0j6VqOcr3x7A06zkB6GCK4eDgQgDwePh8mFWsMhwctaxbRML6hRP2YiAKRpubkJENbAzHXstgZDGOUbAeWuD/TP4rFNMOyo29ctsJYFTd8bsGMji5O0yNpdHyP6OFd5NJ7GaojYv+MhHniGJGThiugMloDYF+JgbFjYSpgNXTSR+J8Gj7JX4DfGoA9OzXrGiwyJYNA6+PG09RlmgBcTfNNpe8feQ8fjvf+OhVRwV9waimtSW6GfZ53/2m3bEcZKpj77MWSA/INCbJ+eaECt2/FgPK1Z6zVDlprdorFqYtYqFtsiQQgL5YSp2TpkCwKPWwedOanMptKR/TzUj6vR2GwpB3qkT9jtsM90MffB718G4C8HRL4AYrYHDhjLBRbkQ41IdFYeUen6flEzcuOnij3LA26jIUP7QEHbNmR6EEvoCqA9L6GC5kgpR+B1agvxwydc2Bi9uTGSlkKiZ275igteM9UTsybl0I9lSTD8q8qFE8PvUvMefZNgH+fffaAfP7pA+AHeKOdNp/G6DQ5dLIggLbm66oq5WunrcHsmibQY52vlj/DlXCZxMjxGZMKQD4jWwrLM9oG9DrqAVINvoxmNqZyzkuDGwQ47x2ekKdgk+S3BwbwG5Q9AO8eAPooVzoSXIkACtyMxfCV7/I6V863Z4I91UvsQhTYVYSD1UXo1Gl9cR2sWL1yeS1+S+QFMD2wHtI69e10k+wRjHSHD04tok958KmkPErqwpbuJ/BFNSyXPLxf7kX5om+zTjJPOWV5cuHay7AQ66oz18NERBU6Xmrv+aDkiyRPXLdkA5Dnlf1zS9yDagqaKMmi1ah/qoFA+nHgtQ/qkfthROr3AO67McXuSaxWHOE7HFlkJHhXpXXccvYK30wDHyOM1+kMHICQ5QgUUbIkvfDhzJYKrKs/BnawX78Si6GwmvXFDZiWWc9ZPUQu/Ctj0nTrLZ6mORJvfuJITTtvZJnlyHnc/wA7LL34ulLJOA4CZkjD870cPcr/PHGVfPbEZVbPEJYdtlazGd4LXgvnQADyhfMwvhgUq9CE2SoMvaxtKKhPyuM9o/JrSGb3ALx/A8NRfdjSjKCtaIezb2hsUenphxopghBJ3XUsOXJ0pdLiPUVyUgdaiNDMFyVvdXgO3XAV1C8vX7pEXrKiVgfVXtpcrYunGIRSqgdvncNOP8SWzrdGVPQHzxGyiGXWiQHpSx7eJ7e09Ghxp57HkVMnVGhSSFhtAmH8ZSPGO66HdcS/gJpsQnX6LIdSK4k4GDy3NAKQz41PBRPKwAqfq/yOhhtBo3mwe1i+C5st9wO8n4IFwCT13Zj+l8ZlAre2eryBs176e8aCBqadA6/z5QjUSJt0sL3zWh2av05N5A3ywQ7MqVWOrK+UM2Cu4J1YHv4WLBNfipkx3k3CuJgZCDM+ef9SOGtZKq+sXKm6+G3HgLwLG5N0QHVG/qXYF3uGDa5p3O1vYBnxP09eI/WVRpA+YdkGl3UOBCDPOktzEyEFHzZOHffDuRNTAx/oGpBrdvbK/e2DssPNMuHsBUqjBDwD7yg9kHgJhNoJ+KbOexe5PvP+0ffiuPYtnOnz2tMRvbYnKm2DVlospHpleW2ZnAEp/a1Yfn8e7JEcA90sF/zoVE5mT+M7XB58mocLU2jPjD+eS9wy75+fOiBfea59Cvem8jKuPJDjSbXOeSV05e9Z36il6Us4LioWUzoByAuotBVOpmCKB2Qu2SFAc8/LCXkIGyl8Czua015IP+Z3s5VQN8rnKU1EAeUrV6QQGDTPxHP0dBVY0XRCQ418dFOzvA2gfhSmNdKp7XYEJrywz8JJXfrSjxNYGHtaPEfrzrABBTbZOP/+XbIdOyilBj71AiGiGc951gzIk+hoXw7zyjefvQ4zktKmDwA66XENVemliiTnlJVqAgHIC6hkKXWzwSnO4NrsseiQHuyVJ+VufD5/b3eP3LG3XzpovY9hiWT413cLKC9xkmK4TAmcqQLQMXfyVFg8/Ov1TdiOrA7z02uUHAKe4hnvyDbHbz15mVFvLEZ9qUgOmnXQ+o1tnfKpx1tV5aY1Cfpp7e1izYerwxA+uNfrZ05aLv/rhJX6hcTqavXclxoIowcfBJcxBwKQZ8y6HLyI+mwDmVaxKdcQmJ7DxsNX7OqSm/f0yk5MJVQUUgmdyhPfhHNAT1FFSfAgv2iBD18p/DTBV8pLMHXxr/Fpf8GGRl1RyixxVgw//dXhFYUQ+CnvXSz2sHiOzA3zwRlLlz6yV27F9oFlGCfJ2xeasV+tMx7VVCU3YcXnGdiIgvVVB7OVYKPa/LQUiofhBUZpAPICKRAFZNcaqdvlYCZXX96ImQhf3dKtq/g4qaMMxldM/+0rPl9a7I68AB94mqQKCqooFf24KcekVEJCfwlmT1yKbdyoR6/naifq2BGcgG4dAIEcPvBnPOZXXHylConTEW9v7ZWPPLRP2jBrKQHLmdqxMVNxOeUh6yVWoKrAUSYXHd0kXztlDRZ3ucFnFhdJwtmxPC7qSjKdAOQFUqys9gRwm2khsmNgRL6MfRqv3tEjvbD5TB04lSw6gKeg5VpAgdCffzI8UJEvjhp4cf0nAZtz6JuwlRt3DfokAP1szHapAaCr/pywjbAe2osVWTTbOAyj87r4sVb54XbYYXG5irV8FJlZHlwMBP6jALiz1RUvWitvgqqLX0QK567ISLe7jJXMUkosAHmBlKZ9XpKYhPyirV++CJvTv8VZpXPU+km1VeIRCsGCXnFqyRE8CAd+qqKCCfhFL1xzpovNcimXtdhd+f0blsqFG5vkFKwYpUsNiLrOVF/UJ8V18NViMxaBfWhzizzVPQQhwAsAceUlCsv84rGvyDevbZQrz1iDDSgqld/61aNB/VdRXPSVXjoByPNSplNlEC+JD0BqvBrzwT/3bJvsgyVCBSHQp2oX3uDKnG8oUT/3aFGfZuKH5xXZafzTrxqI4C/Czkvvg02Qd65pxAYetKPt3aGAZWq5MfTBPj6OfJ1NJGCuv/h8Ozb2bjNTwaA0nb84aGNqlLt5tmuquL58ylrde5SSOkvEq1e0esMnuMw4EIA8M75l/hbqL3WxlEZUVoEIRb3mXsxC+fyz7XLVzm4ZxFJr7Op1sBSeearhzQgHPLTrhA5gzdnL6+SDRzZASm/CoiLb/ZCSrUIiAvtNPHQ7uwjiEIrofHx2l+9jGrB3YXHQ+7ABxR+wzoCA6enNB4XkEXl6Mub7//icdXI8TBjTxg4XMxUW//LBnYWnGYB84TycVwwqfeMNlfls/puuzKT0dAtmpfDzP9XoYl82P6+sFH1gAxB0qJjaUV+dkDMxIEqVy/lYJUqb6QY+pmOnbGmdL9AIDxR+VI9BNpisX0iA5OH8xr19cjE2oBjAeoNUvcpTySk/watPYwOKz56wQqrdoDPpCm5hHAhAvjD+zf9t4AAlI/5Yge+BOdlPPLpPnuii1ES44OIUBsJPa7j/PJ1/UuGNuXDAvoh0mh4O1RUV8gLMQf/kMc3yqhVLZIPb8JrmczlIV04Id8CjEruWFcqoQMCI9YqOXxucIEIzxR+FdcSftnSDbq9csjBxH8kiVutVNVVy4zkbwN9a8BR0OoEmbnpKKT2iRHAxckDnKqPisvJ+HxL4e7ExgIE4qjlULiZJ8dojg865iJHCRZSUdpyYa409J6k+KcPMoJGJcXkY9to/8lCLvP3+3fIFLHm/D/ewiICt8AjiLCErJUNvD+IeQvPLPw/VCd0jMKk7M53WiBWuqEapKpUnEu0rVKRteESuxMrkAZhTNn76up4nwkogWVMIlkBGiiELbOr8JOeGv9fv7pXPPnNA9mNZtenD8ZDiijpWbPz0FodQzx1fsnzy/C5DBwow1/LhNE/40/LBQzBC9hBW0x7dWCvnQd1yHqbOnYcFRnW6PZ2G1ncI6yzXwigmo4NrDSgWFJYjPdSKT8pt+3vl+y1L5JKNzUpnoXCvsPg1d2qCamXuvFpQSGv2IkPYqeerWzvlc890YIMHDGpCKuSilTRa+8ZHWIj6Lyj58PKMHDBgMT4zAD9Q4QfW+wFOm7bIZ5MwzlUl5yytlZdBJUA9+kkN1boEnU/pGBv7Bi/55gPYOQZjf9zlKaHb+X1g817Ypu8DXV5eV3LzdqB6agIWOl8HEwo3vHiDLKsiXQHKF1IgAcgXwr3DvMtGbQ0ZzUobd0L6IYl/c1uX/Dtmp/RA5OOnvC1IIYBkW4XiYYSUwOlJEcrd8LkDLk2b197xGb/F8RIkO3Wpa/+Oi1dzyXAIpQjG8LyJPNdn/l5jK4KDyzfywStmTXclwhTR6qoyWQ+DXC9aViPvwdzoM7At3QrMdmnCrkbmTEZn2SpEaVQ4KC/hp+oZApc+MNYdhiMp9ukceXuHtUs5ygN++KDQC44f8hndAejHv/x8l/wnBtLHOIgOP31Hn+bhwMRBhOYbvFmF8YfrYLP8ddgshNvWseMJLjMOBCDPjG+HfwsVlk1ZgRAhuY5tCADwlS2QxLHHYi8UrikQjwLl4WPN4KlrGNqAeIg69Yx4RBsRnmnvkwYmgwAfH55HGx3zQKBX58+4YZjIrQtQtCfmnlNFUZREdeTPtqRbgQVGZ8GOyLnL6+U0zE1fj42l12HRy1RgstkvXtJXVAVzomBOxhiHkQD/yVZ6ujrC8RUmrX2qC6kLfhnGOZo33oml+c/2jspNLV1yx75BGSKtBeOYA5pRQF4w0vlfp66XfzwO6hXUN/I2uMw4EHTkmfHt8G+5BqhYiMbOQZ2vY7n0f2C1Zi/2yjQQZ+NiQFbsXDg2CteAfQNRFKA/LvSa6fLCS9mEFdwrTQinGWAYOAUTPsO1xscLcwYvvOY7+BnSuKfe371rEcCzkMAlQuphLskpSo7KAq6WxF8fgLOvZ0K2YyXljVjMRSnznGW1cjosLh4DY1GbcL8RszRW11ZILVGXL6ecMwqAiBk3+W2D4bhmOPDSoJ68Y9n48klHMwq13O7BUdk6OCHb+kcxlXVQ7u0clOd7YR1TO5spCTKVPDvQY5nV/P65b1h60Cb4NUPvQqM2z8yac/IByOfMqvkF5GAT8W4YUsfXoE753DPt0gvVShkAIKVO0ZpLQCOQsgpnEdwYN+ef0TFaRq+f5vy0x40Cs0EDA0AeQgAHyanw8KJjXL6V8ew9GA/jJMgkofnUOW946sFc42PCUYcIDgL66PNCvyaPALDMK7NPcCa/MDGR921DE/Kzlj75WbJXd2laDwA/GmC+Gvr1lbXl8kIshDkOq0jXYJ76Gmxbt7Ka77Ec4MhPu+Kdu/SM51TCCdk/PIbfhDwD8H4KA+WdWPSzG6uAn8N1O7f28+8hKrPPg7Kdbt7BQuXpyPIHcY6m/SOj0o12kVZL5YmsIk82AHkOCtALshzYvAwDm/9BEIfUQZsXOrDpF/pou2WlZmPlL5sO8SEdTQKzMuio4mEnktoHk9cK6GxcBsh8g/a8SQ3frQRQqTqA4AsPnsbxnqoX0CD5/jj8CGy69B15psrBHGzf6Xv0Yxja/OATPbgwxXZSjiI/PJN/OPFSD1h0ww6Rz6xflBYAbEvfKIIOwh8Lj6B2WQUAb6woU/BqKi8X7C0tzdVVsgx+rB9UMbDEGAXNNhzA7k+cRdMH3vbgC6AXDN8/MiYDMFmrynEGRJIG3LhGmZAs39ngssAcqCOPQOce5IFAvlEqlZfK1gKjthjICUCei1JCg2VDvG53HwY2O6Sf6hTUW5XEFcSZKCozQRT/VqnZ9BbufHSMl4BNcwBJgquOhqHFVyRh9a9MarCbTi3O1SCsBvMf10DPW4vP240AlPXVZRgcS0oVnm+ERNmA6Xa6yQX2YSzHXxvy0zKEXWhA/wiQbDfMC3RBfbQHoNWDhjmEd6mXHQDgYGIOMw5UYl5NraRZh3d2crxwns0vhgjVLEu6BFCWHSGg157iWp/Z108CrYw6YfqxLvRjHnXKsQ7wLY5S8lJj8Ne4ncA1pX/66/P0s3J+ceGnunOUA78U1DlatH6RIKZdCE5pIf244DXmuneMJTEJoEDoKwQeZUhDAPIMGXeo16xKJuR7WOzzL9hDsR87nFPKYFNU5xuVgjgeqEjHt9gIo2d/zbf4jDHw7MPxKh3G++r0M233eFaOT3cMuq3EpsSrsNVWIz7jN9XZp/566G3X4VN/PT7xm/Cc6hbCUiXO3MLYk8f76Y6pUipX0nE9hgsqZ9hfDEOC3IKNMPbik5kbYjwJc7y0i30A6oBdkCx7RgB67FSIQTixg2BE/FNPPTNFpku/mRyfeX7M9DyXfqSX8eOggOnSSpHDh2naeadfKg6wVYli2hQNx5BakspDu1YvTQOhwSeu+NXBQfVjfBY/OIkbJjyToz9fVgpwbSnNFDI2v1RdIm1gAvK8Al8hDRAYglsYBwKQL4x/eNuDEIENn8loL786MCCfebJN2qHH1IHNmdLQduVapj731/7MAPy5ezRIU3Gg0ifH4UsYx3M0BgbRUEj8yLpqWPKrhFGiatkA0D4W+thjMFXuGPgtryJEa8Ka4lwPjoJUcMagAO+iqvJxMnpszUj9r0htKnwPPp2fx0DcYz0j8igGBZ/DLkeP9gLgwR+l34XUdq5ZmkYjCVAvd6Enevhw0ylMJZ2bC03Wp80kcK23h6IjHdY6LJ/tQ4X3ZFtoFrEVcNrfX6VYoB4+PpeeFxqmBkq9Gv8F6FMSSR+vk7IaUzkb8HVIl8J5vQuH+XAgAPl8uDUtLJuZq4KqPeDX8Z+6huSf/7wfulHbAJc2OrSG+jY2LY6ZbxmYUgrehfTFCk45WVUzk9yrE4/QSDm9bTkk6zOWVsupmCFxfH2tmmM9EpL20UuqD2oYHkRmTnNmX01qhkdzzg4aaxMY82LYL3kxFtOw/e6GhP4U+PMkpsj9Hpb57uscgB54DO0aDylhQgJVaZ23+mlAAnjjJEwSpUyAn/KJ5+CKggMsOy1TluckbJNXwOJkkMgXWnZhHvmCOGgAYirgBABqVC6FAaw7YHGuDHpn+psKwCeitdjfHOLMl/gBDlUHguvgpAIcIAv6UEovqzELggadXoOFFMdiFgQbw2qoTSpTg4xoI2wnLgVufebjtM5HkfAQ6WfP26evxCDaVM4iybdC1bIDkvndB/rlF/v7IbFD/YKFLPoO8lOODmsSP1MnaDbwjIDOTo754meA5Q8XwRU0B1AD3GcXZzhxDOeyF62XfzhmmbYV1vfgMuNAAPLM+GZvoV7qvF+Abs/YuHwa6pTvbO+2GR0IoUCm6OUqMNF1FufnK9D2B+cBl3EAckmFbAJgvwTbk70W4E1bzkuh126AftE7xsyZJBxu0+mFHsZVoudT30qi1/7t3J39V4AthMEdycCBVJBDfhHIGBp2F8YTnoGUfs3eHrkfhqp2QR3Tj4FUDgRSRUUwt2Fk5hsRaVyMyWJjjMEVMgdYYPzCJIjTCmKlfO+sdXLeqnqtu/yiDS4zDgTVSmZ8M+hAxSO4EFa+hcUg31YQpyzNoT8HmL5yqvTIxLyHJax3OFCdOQlpJTlBaTMhG+or5YSGKjkbi0veuLJezsKKQWhMIu8jFXQMTIVTBgmQlGhMlocvPfCvPwai433MjvSkgBb58iRQMCNZ/GphLqhz57S8VSsr5JUrl8jzUL3cvr9Pfo6VifdjkUvvMFo+VS7ad4G/kMqtX6Q0Tk+fSVwGV5gcYIGh3FlfJ1Dwp0DddnpTNWhNd+iFSXjhUxUk8gWUkYeQG7AA5O8f2ysdkB4JVSkQj37yE6kJrs7xSqHHH1CxGyGhvBzW9bhB8Jmo5Gdg2Tclbw9SXiPP+NMxTcVnPtFnTA5vesBMh1dfR0WuT5o5SySVrKeEnR2uHZEGyhZeP7G1I0pKN6br/RoWCO9sHZBftPbLTp2TjffKaTsEAO46s1znJMSfHQ5o6aOY6zHI+cVTV8ulG5ehCFETWFGDy5gDAcjnwDoDZoAiwMULulRj8FPwMczCeD82uX2yaxgCI0L6mko9rqKUOwPI+T7BhxCm35aovJzTfVxjtfwlwPtlAPFTAd5c1u2dQZtCHrwOV9ktZDQMfQ73hk8jvnOUoui1w3MlxPIxPcfDUDP9CTy+q7VPbt83JH/uhY1wLkGHo3qGb+k7TuqznFtc6WufpueKf67RhEPWOBDlc5THrP1QjqHYLtjUJJefvtZmrLBdBCBfEPcDkM+JfYRywgRBGYABNQmvezBxmrv7XLejRxIQnG3BDwJQpEzVX4Y1KZlqBAJ4GVbzLYee5CXNdXIh9ok8sxlTBQHefs42OwlCEyu3hxymuxgdWUa+ef3pOPi3e2hcfrqvX67Z3SPP9Q7LIFc4QudSho6Uu/jw490KwIA+BeQKFnhGNde0L6TFyNvc5jlSc5XXLBWoA9FmNuJr84azNsAkcI22GW0fkeC5pas0Yw9APku5Tv3sM9mc4IIvfvn8lgPy70+1q76P0dhT1kj8VALHCZfcgQY1WBqgAz4Oeu/XQuf9jnWN0IFXy7LI1CsbrNS33YGxBkcOkOcsC1W7gL80XrUfAH4HZrpch8VXD3cPYWCUKywRBoF0YJQv6YwdAjvLxQM7LoPLIQfIa89vFoKZakATkPVYz/CFU1bLBesbNYQ+JdBr55tDkko86gDkcyxgVjWiiVU8kV9juhwN9u8fhF6cKhUNANnCSR8anH7UfWOZ+6uWY9ByTYO8ESP0R2OBjtZiRokXGSxI3+TYbM51pJC6bZ9HC0+72z/ePyA/hx79TgyQDsAOCXtQ3QOVMyRUSiewaCHZS/RTAJktzfB8/hzQGp16jd0ov6pWL6mUz5+8Qi48cim+sPjNaeHCd2eKVRlfBCCfA+t8heOZn4ctWLzy4Uda5K59AwrA9CdM0DEEpp7o9XIsynk7dpJ5HWZhvG51nayosklCnELHN1I4QkzRN3hIX6W8woVygJ0e2cOGb+MMykViNhymgMLeyx0YEL11b6/8FIA+hOmM7gW+Bp7znuCh0GLP9Akug8siB4zbNuWUHE/KSVgM9q8nrZS3rKlX+z4q+KCT1XEnpBx05AtjfwDyWflnMM5RTErblCw++3S7/Bv229QhNkp+8NOPdurOcc8532+C9P1OfD6eg8HLJTrf20uGrLX4MT6t4gZGDo1mpWZxB7CyMJgA072kDY+o2qULpgL/CFXLLS29cht06a3oePnJROuA/JukkSv/7uJmaI5y7wc1ccbgxrnY6/TfTlqlOnF2o+xL1XYMLzApwDriHJGySKINQD6Xgo6oP+5o65dLH9ore2AHmqCtqhGgezl03SdC5/22dQ3yLui/aeOkXm1ImD6Xul2b9eKAm5WYUK6Vei5EhDCeA/4LSKU65WIK2rVD9QOjPbCs9wQGQ3+AQdGfo9y2Y4ERrQkmyqlL5zx0e8/HO/M5GiZ6PXPo0ve1ejs1n2k/csjq9aQsw2rjj2J64SewA9AGmJLgZAB9DsmHUO9d+m3vE87z5UAA8lk4xkpmaCswtzkp7wOI3w5gKAdajOv0koQc31gpb17bJB/d1CwnQRr3jtI7pQ2r3N43nHPNAZYZQd4GRrnidVIewNTFK3d0y70waLYVVhlt9hDBXEOjW2Up4aczWggy9HeFRz997lUyuF1UjnxhhsEH1QeSD/hxIFn9TTgxwQZe4NdxTbXyv05YroOaHM+fhOTty2NRsS6mzIaVnbMyGjVV23NCbXTTnnQSAD6OWnkqNt19OyTwd0CFciqkcVZUSosGARyQmzXyECAHHCDb2YGyHFgaZZC+X7psiZyJVYSPweoiFxb9eG+/PNKFzR4olWPqog1SI7SWmZWgj0FBS7049qEBckB1oUbJ/CLzCuC8xDxb1YUYiFNVRZ7ouA/aRQ3s/lx0xDK5aGOjnIXpheSdCjRaEgy52PgHFsTggkQ+Byb7wUkOdP4Iqzhvgu71OCyhfxtUKGfB8qBVZIMNq6ZWuecQdQgSAwfc0LLCDcuK7mEs5PopBkVvAqA/A/XLpC4uYufrRy4IXg50DN3xFst4kTlmWdkQ/SqhBG5SuK6dwF051Ihc0HbxUcvk3RjQ5EI3fu144OYGJx70FxkHY8luAPLZ2IyKrIaxtEJbVezCdlsNUK1UQJLz9k74WckPzuAKkAMsQ0cWz5TSdfobbp6GTZffQd1y1c4eeaJnSEagPiNycXERtS60MW/SKG/0kYtpkZx8nl1nRoNXrOmUssmgauhNzoQdIKoVXw+DblzYRv7a4DNaBMPxoJ2B6xgXCevizGYA8lm5zUppAO4BnaBNx8ps85lZWwOMK1MK8YDiIbgQTFxJus993MGPz7Zj8PqXbYNyQ0u3PNE5JJ0jAHSoE1RC1zAuYyzqReOsnhvflB0quBDA67G47VSoTi48olHOX90gR2CtBLmrA5rutRSbKJlDvRVc7jgQgHxW3lIXSAsRdKyQNhuZUonVVz6J1tzp9/piOBQABwjYWlLomNkpm8TNztgAneXLqYt3tA1g2mKf/L5jSHb3Y39NduQ6AwmZwEuLBcutVvMIfnHAF3mvA4D/BVQo78DY0DvXNsAOPgGcvDTummDD8OwywSnwVp9os4i2kwKoECVEQgDy+RSmVkZryKymrMBTQXw+kYWw+eeAlR+PdAYz5jc4MSG/A5D/CqtFf4mpi0/3DuETzMqcX2QqybND0Dd9DLzhNaVPnvmbBl6+2uDJjM/VfyGHaJpMzFRFlhbjdfSwF2MmUg7X+o/ODo/Y5TGIZRQ7+WBz7lesqJO/1NXJdbIGe8B6p1HxJhod36VTvyk35h+OWeVAAPKssjNEVuwcIOSwqzZFANYAAAgfx2YX92JLulsw0P1HmNQd5bRTBkQgfpfZO0QsW9GrMzv0GgEUyDyYRrnDB/zxWY4cCdP0ceA1D9oD+WuezcsEE6oLQQ/m2uMzBfPtk7o24v0w7PYK7Eh1amParLL7trHoLZpwzCMHApDnkfkh6cLlAKVMznahqsCGsZOyEytEn+gekVuwWvRuDJDuHx6TYW5LR9zjjhcASb5n32w+b0RSRVF35n2MzidPEjRp82D3Y5RQr41nKn6L1MGMxNqacjkL0zXfANPK5yyr0f1fq9xcWj+V0I8TxZiTkNRhOBCA/DDMCY8CB0z3Cz4ApE1KFxkFmu3CPqPXY/riL6B62YLpiwdgWlfxGrOZDPNMUrfuAO9DDZN2HlX9Of1kwVeq54imRaoJ2vZVoJI3HrOT0v3VMO2yFmqSdbVVsh4Dlm9dWy9/ta5e1mGTkyoOULqobJqhfoSohonxRFNZMN0hggVxIAD5gtgXXl5MHFDwQ4YN0AnUk9KHRaL3QJd+d+egPAX7Ln/EIqMeSOqKdkR0TGMkGlLvnEJFhVHCIH/6gA+z4tRQlUaNeO3fJeNuXHJVAO8zYFL5ZPzOwuDl2ZiBcjzMStRVOoB2+n8G1zEBROaEdr3PCrEhkqxxIAB51lgZIiotDiiEIUsOAAG6Ov3Ug6+iGleEMtcWllYx7wOQPw4J/dHOEXkEq0j3QXJXaVxHEBkOzl4ivDNWA1p7kjp60Ex58DXe6CHqi+hdtHrSnakoffPOB4aKCLNujqmvkTOxAvlYgPcx2JXqxbg/CWezTWMSuylc8C5nnbi80Q9AoTEm9cvEJZiKfyo94S5+DgQgj5/nIcWi4UBa260StUdSxTkAn6pLTDIn2BkgGnjugVROYN+N+ekPwc7LI33D8njPiAyOJmUMA4qjMHU8zkFFwqMqqXFtrxp39No99w88Ynv+EU8ZRH9coJbQXaawHaYswV6vG2D3/vTGKjkNYE0QXwPd9xH4La+aOuPEVr5aPOlJtQbpU4ma2j14MsI5/xwIQJ7/MggUlAgHiKvEWkqyxFbvhjHLpXt8Qnphp6djZEKe6R+SbQMTsnVoVPYB7Ok3gjDDk9Szm1XGEUQ0wi11XEwcdK0tK1ewpkqnHPrrOi46La+Q1QToqnLZCODeAD33CTDcthZbCVZjALapokIaI7tQkaZD0enpDefi40AA8uIrs0BxEXDAgyVJdRM+UlQT7LlV3TggFVtYApZFemD2YR/3HtX7pLTjvh0Ab8qXpFDKXlMF08jQYVOQrwFIHwXQVjU8eo5yhIR5E+G6Jb4TdaRFV1zyiT6PPg3XpcCBAOSlUIohDwXNAQIpHQGc8jBXkjq5GGdeTwVeeMzTMWLVtiNapyhBGmjc6s+0wnTBebK0yIIHM7ZFVmCB3OLjgIdpxW8PuKmzDiUiUwBdAK/eMSBv7U4zrJBMYKYIzmdu8JThTa8NT/jpJEmXIME7heXFx7ZA8Tw4ECTyeTArBA0cWBgHCMfeeXhXXIYnnzlQ5yXxWs8G3PYWPLQ3QDhc6lhrZHaJRqEBPZIzAjgGdF7mEY6lxoEA5KVWoiE/hc0BxVYPyI5Uj7cOiVXH7fA7hb+U1lXi5js2k/2gjDIe7tqjztkDp1TufFJxuftwKh0OBCAvnbIMOSlUDsyKpJEACsYzZ+TgR95n+jn9vj7xj9Pe4arEOBCAvMQKNGQncCBwYPFx4BDfaIuPESHHgQOBA4EDxcqBAOTFWnKB7sCBwIHAAceBAOShKgQOBA4EDhQ5BwKQF3kBBvIDBwIHAgcCkIc6EDgQOBA4UOQcCEBe5AU4nXxuhFAqrpTyUihlUog8LUSaCqW85kpH1oC80AsjV/QtJN6FvHuoAi4lmxrRvOSCV4fiYVz++chTlKdx5XO2dPJFUz7473mR7bQzmkdOIjzzs0mQj9NnNlvnbNI4F5pmy8dc6JktjsPRMZf4D/d+ps8ypZn0Rt/19Ef9MqUpV+9Fafb0Hi6tQstLPmnOVdpzideX0aHKYz5x+LgWeva0MG1/Pd84MwLy+SYy3/CemZlmar7plVL4hVSGbPAh3+lnIw+zxVHseSyW9jVXPs813GzlWszPFwzkExMTwt9CHXchJ3CXl8NafsRNYnNY+mcK6qRtfHw84/cjpMx6yQrFfFTAmP+h6GUY0sN80flw0ysj42Bc0/1nJQIBslUmc0nLh6F9kIrKQ+fbh5t+Jh88L6Y/8/fkRaE6z+vDlRPLuLLSduU5XLhc53F62qR9up+ngf6sf/zR8Z7O11e9yeDAeFj/fXw8zxQn+TWT//Qk/fs8Mz/eHepdH346zvA9PptOG/0PFRefLdSRjplomW+8GbUQz4zh4WG5/PLL5ZFHHkkRw2fzddXV1bJq1SpZvny5bNq0SV74whfK6tWrZcmSJVMq0lwZ6unr7u6WG264Qe6//34tjExomy0vUZoYf0NDg3z4wx+WM844Y0oj8TQ9+uij8t3vfld6e3unVBD/3Kf3ute9Tt773vem8u/9D3X27/f19ckPfvADzTPD0j+XjvknENfW1mq+zz77bE0uypfp6Xta9+3bJ3fccYe0tLRMqT/Rd3nNOF/96ldrmOiz6fHGfT80NCQ//OEP5Z577pmxfpFW8ob1+pJLLpETTjghbhJnTI9g9cc//lF/o6OjU+ohXyDdBEXS/Za3vEWOOOIIjWchvPdlTl6RZ+TdTIIKwxEP3vWud6XKfMZMwNPHeeDAAfn5z38uO3bs0Dri/ae/58ujrq5OLrjgAlmzZk0qDr5z7733yk033SRsQ9PzyufZcj5u1o1XvepV8qEPfUjT8/6ZpJMRkPsEt2/fLr/+9a+F5yrsXjKbZHUoAhkfe2D+WIg1NTWyceNGefGZZ2ojPubYYxXUD/X+dH9fkNu2bZPbbrtNdu/aJQlIFtksDJ8maWe+PU94feKJJ8qpp56qkjnDeXpGRka0stx3331TpAcfF8+s3Kzk7KVf//rXy8qVK1PvR8Md6rq1tVXuvPNOefbZZ1OV+lBhs+lPifyYY47RTpgNxed5ehrev7+/X6655hq59dZbU/XGP+M75Cfv+fv973+vfDn33HMPGe/0dHJ57+ncuXOn3HXXXfL4449rWdN/Jse8nHXWWQrkvp7MFC4uv82bN8sX/uML0tHZofxkutNp9/xvb2+XT3ziE9Lc3JwV3hMvfvvb30ptTS12LUq3G08D6xHtsBMLKAwdKl1fBnv27JHLLrtMBZfpnZLPE60+smSYJ3ZiBPDzzjtvCpDzXZYlwdy/R5py5djOR4ZHFAdIy/r16xeUVEZA7lMcGxvTy7qaJVKBDV1ZMJk6AiCZTIb29PRIW1urbH7gQbnl5lvkdW84T978pjfJcccdp9H7QpwtrTHENwnJYgmkRQI5t7vKpWNFIViTL75Ti1YK+vEZO71DOS+lUCIiP+bqPE+YBq/ZGVIlEU1/rnHNJ5wCE9iaRLoDAwOav7m8/9xzz8lvfvMbDe8/LTUu97Knm/xgY2UDe8lLXqIdun8WDT+XNLMdhmXJfC8BKJVDreTpmp4Oy9G3lenP4ronbeTXMMDjrl/dKXvxFVSNOkJ3KLrpT9B9zWteI694xSuyQuro2KiCdB2+tlUVApoI3N7Rzjrr8CjaUVRV4p/z7OklVlC6v/vuu7Wj923H1wt2CtAdE8FxxRexRV51jbwZXxnHQjik82EZJ+Nj22Q89PfpaMAsH7jnKv+YRjbqxoKAnJnlHwGczF8IkHs+RXVG1M51dHTID6EqePCBB+Qd73iHnH/++XI4ic/HwzPI08MkdilPoIaQxlw6X/i+ckxPS/nlKsjhKgmf+bDT45jrPePwoD7XdzIJp3lFAyGgzUazzxc7O0o/VC95ED9U2nyHndKDDz4oW7dulVNOOUWDarqHeikmf6PBvsjKHL9nStrne6ZncfvtwNczJXLTQRM0UXgzONLMsmEZ8YvoTHwdU9W50LyUAcAYh6+bvOYfealxYxMMS8PAdDppfEbH8D/96U/l9ttvT4G490cEDIEwit305i3/5Q0QCt/z7nfrl7+PS58zSKRt8tn05z5cNs5KmxN8rR4tLNYFzyOP9qYLI8Xe9gzkWTeMRY6Z0WeeeUa+8Y1vyLe//W2h7tsz/bBpsjxdwR82XMwPc1lBYs7K1OTmyGvqxjluEf3iiJZ79NonQJURVVLsBOZU9v7FHJ4NUuw4WzL5LnPyjPy+9757heoS3s/2hUqaKZ1Sn74L6km6heZjTu8rS9N8nf4OaX/ooYfkuuuum1kYIGITP9BJaSzYHo9S72mnny4fvPDClLpGM1QihwUDeS75QGnfFyJ154ODgzp4yQFWP1jon+eSjhB3djnAz3UCs5fGWYZsnPx556+jz371q1/J/v37fZBwniMHfBsh76iG8J3hbEKO5z0HE//whz+oqoPAHrebXhfYqVx99dWyd+9eVYWQztSP0K3b35lEznf///bONdSSKrvjp/t2zyAYFREcRcy5joqtH4wgiA9EIxI1KqIS8UPH0faFivhB8PHNb35S8K2giCBIt4qoIwoOUZLJRAOmxeeM5sH4JWNmFGYmYLx9u7N+q+pfZ506dU497+njvbXvrbN37cdaa6+199rvXXtMiQ9tzW3Hjh2D4XDocfEX3HnnZy3wzV8qNXLh7Wnauu6z1pWvj69ar+K1114bPP300z6XjjAyIZpAe7MfOWCymGWQFVNl7733XrZroSi+ZBorGm568ux6wMSwIhi93yQH6Fmz3hCV8Sw+Ekbcle9XfK5cjSj1bd4GnNDDjpLnbJH8/X95b7C0eSmr+xk96PGkH+7xmWc/7LDDBteZEmd6SHCy+OvEMVdFjiCmPUX8VHGxVD5USpT5ZlPmq75NiDmyuCAC7DZmGm11/dvQ0GXaMrrr4CqDRbjVkrQKTUJW5WfRkoXOuBBLWoU7nDR5rHT4sxj17rvvegNOFKWZxNb7RA7AO3YJ0atGEY54P7u+SJqbbGqCrX3za0RV85NcSM7Y7HJ66823kobci9x4XFKQK+LysHh5+eWX29z434w1YAnk5r/wtIsnobY5HUo5V0WO0uVhrk623DBdjBFxiW2VHPWAdIx5tifD4zE8RKjMnZOutTEUe62BgJ66j/Ki/EFLJzTVyFTEBy9FU1FeCGOxyVkKa3lKeBjhKZ+Z36rxzGBusS1jSwVDb8kWZcLCGb1yplXw10NW5caWkR/vpGFYDQxMGc0eaYP/iJeMgqgrKHGfG0/lrfBCNpkYWMRGpuxIoiFgRxlmZrpCYLM9x+AVlEVkzRoJ50Jo0BkpKA1hehwL6VMYKPArr7wya7yalhnqSDTUn6K6VdVvxeuMHYzau9pJOW61ayVmbJYbhsN4dpvEYZ3SSCEgIBhEYYPhLiiTCTykV+68pHDZH6vuX3311eDll1/2PecHHnigx28iKCmyHx+Y0AfeunCID+3sUT3ppJPGCo4KnPK7ljaHODhQ9c033xTmQXmD1wyZma7yhtL4mvEcfov/KbEc+EEu0YhH5JudJX9li0lFO4qE85NPPhl8/PHHLru6PCE++FmoYy8yW+KgSbAjXb074YB4w7kEFpdZl2CtyXlPvUrLub9PYRr1jj/KCSOpDz74wHk/JXorb+9YOF2A4S0x6IxsXty2Tf5o648S2i0OZTefD8rld//3nZ9BufbaaweHHnpoFkcwm9iJDnIt5D19evvCXRceNK7aLqCTrK6iM9qa8ZrZFtqU9Aji7LPPHsBUtjBFgxKnciIoegwUFE76oRzogWFLYSDahI0jCCzecAry9NNPH3nWcAF7Zc+Kw/h7W9HmZGbEWQOUCxVlwyEe4M6qIHXgVokrHlFo77jjjsF1111XmAyakAe9q2eefmbwR3YA2butD7kR3Sqg9DBOPvlkP5l4xBFHOG+IqHjCC0zyjR3zLTg0HGwh/Prrr70SwOO6RrR/9tlnfpr4jDPOyHCJjrowN0J81as4CiLfkuE0HqC4MPB9qylPFj3pFcP3NkqsEJ/VF0M0CvLX5J3pIA6PffTRR1kHycuYxZHcVc4AwA4VDuWxuMmp1Bg2QlDP5XgMH2dTfnL4Twa33Xabd9ia6gphP/jgg52Xem9qr6kiJ/MoanrLHObYtm1bIZ3HHHOMt54wnEr63HPP+fCZ6ZOoGIDH40I0SLjZvcKeZE7OoUQVVohoiic0UjjpSXdpoG/eBpychuMpM2/bCdAPbZpjy1KifMVb0Y2NIueU6mmnnVYGLgtXennwTm/uHdutEuWp8Do2IzF6lu/buQJkjnLK46sDb73HRX40oJy+pjeuBrQKz3yk5gyiHCf7yuloMarSwmFn/HMlPqovqsfQy6j7zTff9LJjwrY82IjZKeJnfEqW+IxK6ZRxtQNwquS1LB/AoezuWUlOhnY5594FjXObI4dYHhgdH/nDSBh+4oknDu66667B39pJTlV6CYK4eYMfBYvj0m0NdNGaR/qauNvS0Ta9aBZvo02jxTt2MlQ0bJNsHSOB+CgEbGALntzCN5YIsBYf2RGOAkBGTRvbCJtywZzvF198kZWRGN67R7zX/nsaPBnVJ73PtkfTF8iO6UymaSg/GGQcTf49hpW7x2FBM/vFd+7c6fPi0O3w0eLmzhvKGY3V39mBH13nkI/T7j3BCR3kH3yyVQfq2ORF/JLdlL65KXIIhAFUQtly844hMzCC3uT27dv9bgreo1GGZQODxbMPP/zQowlWTFPFrd4/hRWYTZ+m+KvQWDWOaIeW/EOYaMx6XIH/4BBvhS/CUHr85BY+xc/bzNez4yEPNx+v7J30PMjoyy+/9EqeLx9lMDZSOEoGRciJWE5UwivkJjnInsUTlRHFxaYRZfozwhIM/NoacCBjGuqnnnrKzw5oWgj4jndK74N7S6644gpX6NDRBT0jOElDA1/p8FHuoUvlv66tvMhuw7c1nVopIgwhTWOuMkQcLpHhSD5z56yYwyT8ZQQDRjK9wtC9qaHQMNdOA8IcecRTBhM6iM9c1/HHH+8FsCzNQoR7hUsqhanu0VDViBNvRWfkB+58uOLlbfGGI+EoXmRlzMpHG3sX7IhzLIK9KIz5WtZHmLuvQ1ce3np7Fy++/fZbvxXQlY4p8nTK27MrHirvk3xHIY/LijRMbXEZHR2no446qnJZEJ5ZNtjACi2M3p588slscZx0kzTimxiUK1MpTKkccsghHZcHRiVmLP+sDdCIsXuGqVjw1jXUAy6YYwqoKzN3RS5hVMkAVzzu2rVr8OvP7SY/K4hMBbD9MDPGWHoaXATEYREW1GB0HUPhhLFcxasbA6umV14QJocOuCXurLPOqpp8P8dL+OgV2py8KT+2P83dbfpWwAUeWw65jZFTuTTGIMq2chmChIoRK2JPRzBGoSMXsD/99FNfAOti1X8Eef244A9l2mWcjr3dncsicmHqjHLsd7DsS0Zt+0xQ+8JFeErL6JU5a9a96t7OmUM98er12/ats7DKwni+A5dPINq5BIsFfm5NZeThZS0fufF7Mi6xIu1w2YL5zDPPZLum6oCl3MLrSy+9dHDTTTdlMLK6VwdYiDt3RR5wlzrZ4ULL9RsrjDIocw335IfQWNlmCE+lVoFTeBWbNMComhbG8yg+Coth7A9Gkec1aJ5JlFrLHya18jEqvaNMWMMQn/JoVYAJR4kwqkEOzMXyHo1gkAaZcx8+C93sWNJISvBiuo3khkfwAGXB4Sl4KaUm/kV+EEYHiFENdedz22ywZ0Xz3zHmyA18Oj7sImEuGiPYXfIfWII7wj5yKZ+MpH9m3wBgAbZ7JT7CF100ZmzrrGPEGxpMdAX6qu31tcKfttN6XQxbGaYi+6X2JtCRSVSBBIzNyTN6fFym1cbQM2eapcpDXCoBcXHziO42NCxiWnR6XQMvqFRcVUuBhT+JSRSNuw2uy8/i0hM/8sgjB3fffbdftp+fz41dd8keGDQSmlZbr/xP+FbvV1s0xUelhkfxgZfIhikqttQdaVOae1btemqvcsWCl/KnoUApie+yhWstbXCRNzp7LG4yesfMiwbwVNETMQ58lr4gfSzHbXm1kIpcmaLA0Np6L9y1yXhfHH/+mF6hdWSuvI2BsW2eNrjXQ1oVTNnMi/PRBVV2+cs20bnhHVlzkIl5x1NPPdXnX+lVZgXe4iBrGdJQMVjo5usw4MDgn8FX5A1oM53FvSra7w0LipQcPGZaUNtvuSZ41RRkwupiRS52IlsOeU2DrXhrYUvOLG7yJS0OpOFXlMe1wA9M0VDXVlrRSvq2ZqEVOZmjgof6O5Zf1Dp/GJgixoxF6l/mxoHIfwon96qwaIUyoffkJi2ziouNEj7ooINcmZCOITJK3a8xtkSaU5esgUM6HnryLLyxTxpDesF2jw30o7zDc7Z7whsM/CCMR0ZuwpjO4jN0jIDPPPNMX4Qj7TQ+kpZGlK2NnLLNZCvgc7Chga3KV111lZ9TUX7mgLo1ijyt0/hcB9HCK/LxTCY9Mvzcf1QuJwpqHSY0jmvkRKFEd2OYP/CE8ADZMMfNoR3mEiUvl5nxzO2QT0ZUKBN64oQxXGYh7S/sINkeu/+G4+E05vY/ZsCF8mEXge5fiRE2mjyUXw4AsbMk9sbFF+LwwGcUMFcqXHjhhd6Q4n/KKacMlpeXPSwvJ8HApoPFGgU7kthZJrgxzlq6wcd3fhlNCPcseteSlrqw14LOhVTkCEbmz//7Z9OW9mYFL/bIPJyabQ/+zD3V3bEiHKV2isc1idygNrpcyeA2+gja6Eayo5fMsBu5qKKJN5IjHCNsacuSL5ppwRI/TpIOh0MLZ5hvnPU7BEYcFkz4rrtE2LmEgiEMsxYVRnlYNJs8k3euu2CfN0rWR7NGKGFePo1X4gk2ipw1KE7u8k48tu4xX44sNCVWlFfS0oj+l92KyPW4glsUt2s/cJE3GhHuqMcor13jmgaPkpiVRr1UsVOAXfNrIRW5mMfw7nf//btEgTuTRgXR41AwTaAMwelZUAibGBUM7PyDorbjQfaHrcfeiYsoTcHQo8SMmp8mVPzw00hhsD2Lys3+f/iJPwYbV/LYr7EPhbC8vOyKm+G64tLTYjcK35X0KRbjsRoAB5b+EJ8GnEaD+2MwgpFG2VDW7t27fUcESjbyQW5syQT7nHPOybYQilHci8QuFq07yD9vozyRMQ0HDQhGePJxm76rPsb04AA3O8X4wMQrr7zitOLfNX7hdToosumTaATqPjohrx+kJwrsVG9Q7rukdeEVOfN9McPRDZN5hykMx7kwCgPT6xoWfSi4wNMDXH/Mf++qubMnfQe3/ZEOZYLy2egG3rN3me1VKJMyA38ZzmsvOBUUGPTk+eAvc+fEQemnPxMgScNCNz00Kjfv+XIykWgdeZBXeKarZjkIJB5EPuTddHy4sRJeY8R7piz4gn1ZPQIeR+LZhsh2ROJHHF2xuAgmftDNfnP2dHM4rIzeVvQYvrTf5h0LrqFlzzv3vvCB95FuiHqi2M0ok8NALNB2ZRZmHzmCyQuCBSzm+jCEUaHzhUVpqPAMB5sY4LI7hhV7XYcb4SBDVyTYGJQKck3bCxQ5W+dYQccU5cUD1vGP8sw2UBY5y76r6qwzHqI8mGNlP7h6kaqkzH0zReCGKRbvy08ykfg0pMwNs2+9y8uSJrEtrg985B6UogY01hv4hcGmN42s6MhgiIebz6ipMfCAKT/EIT0yh++ccAau6uWUZKXeSi9aSSA/JSYMZc6Xix5//HFfgGWxtgv8wpHZsMwKLaPCLVu3+OLw0X95tCtwD8giTnFY2lRdeD64dAtl3hWtC6PIJSQJjkWyl156ybeXIaxpShx/FDiLZcBQ+insnPAmDVM43M9wzTXXeOGdiFTBgwKtFOxZzQAAEgFJREFUno3yUiHZuovCIif7i5FLnCrJZ9R1iZVs+IYCZpdFnm/AQKlstnMCLlfVhBwwwoDDlA771tnCWHQvei7Zungl7/ANPpF3euO8y9/5luY08hd/Dgs9//zzY2WeOOJ7jD+LWZR7GgT283MjZReGzhF0AFv5UZ4y+KlypZxxn8xDDz3kaZgaUr6r5iGDOcPBNO6KdSx+esJPB/fdd192NcSMJIVB0KR8FUZo4DlXRS7mltFJRrlkiftPKKCxpybBSKiE0wugN93UUGCYE2Sogxul0MQof6KxCQylAVZ85N/E7oKeMrzCwe4RHa2emcaVsikhi8Qn/FZWv/f+tq87pC7SW1HgN+3OJD1JfPJG5YFyc8kll3R+JXEeX5N3lY8maZVGfNa7bEYv9IqpDyg2GeJHvNFNHG1RVHzZ0/AoHDvCogFhlxJ31zM6IqwKjAgPN2mog9zjwqlu1lrIk/IRcW6yqwRkyDOj98cee8yne1gsJ25TOgR3ZIMroY1OAicyI59H8aq5uqXNOkTV0LaPhXJEGGUPLTEHPBAIc360XFEYYoAo4h0l3PYucehqa5S3tnBID78oKMCsyjvhz9td0FMFBvPULDhy5BsakM00k4WYA86zYLy0yW6eNJsn8bNfj8iANktRCFJ8YtGN+VKUAX6LYtrKUDLN50d5ZEqF6RC9E0/8j35KLz/oKnoUrvhlNrjesfvmaVDaGmAxVXnrrbf6SJl3HtHkYpVsbbOBpEyHj0NojzzyiI8OFL8tPUovPHpvY0Nbl/SteY8cYmlRmcdiIQrlFIWCm14Bc6FsZWJ4SE+cY915JR4ZB1wqK8LjeC5z2xj8gVnHUJDZuqZdFm0YDM2ao4z5hJ4yukQ79MAraNJiX1OagMWC1DzML97+xeA///0/7EMVSQOk/CpfeRqQEmEsGlFJWDrm1ysMckwc5lMuT3DRAOyzBelf/fKf/eZMFu3yMsjTMI938sjhGeaSm8gi5oH0yBQj/jKlxEiE8qvRq/KlOHqXLZjTwhVPtspfPp3eCachYUQ2HA6zeqh0glNqm6hpxveYTmAx9oYbbvDpojfeeMM+8bbVQlS/rVT4STF7B6jJH1rQL3wR6eGHHx7ccsst/jEb0ViKe1YEwwUeeM86EA0W5atNhwHeIM/aPCqgc00VuRiIkn799dd9hXls7tIywoovhZzdKRy3RoGRTkocmnmPRhmHiUcffXT2mTfhi3HL3MLFFiYKItM0wK1roIl0pGcf7vLy8gQI0T0RkHqIfiojC1ePPvqoL6pMiz/LH1yMblg/uOiii5xPeT7OSl81TDTTG3/nnX/IlJUf8zYgyjO28LsfFS9Fgr7GnVRJe3MP+SSxsjgBTpo8s4BPRfvtV7/1XjlfTxd+IonWLMGcHNDAfmcUOcpJfKiDHhh0eJhCpHxp+oL8ssZATzTmtQps8WMWPcAkXHGLcBCGAqWe0xG7+OKLs3wqfRk9WTzEbfB4pwPIJoTrr7/eG6lf/uM/WWNN+VBpAGpSPiJ8aKFBYWR4zz33DIbDoddNNYCKOyvfiiPbS6uhom6iq+6///7BcccdZ9cZJB9oUby6NqeYmdMnvzxNzZoqchEFA3//P78fvPHzn6dCSENSGcAklA4ZIa567cSKmYuMx82cNkd0Ueb5uO5R8QccDMmZ0on4HGYhDFSOEQ/9xntoUQHzDxpbHvg+ab7gFIIq8IQG+MGeYO6zaCReg0HDQoPI1kzuaYbOfP4K0NfyEkxo/fyz5Cvt+GGKcGV+FoV8GZn8ujuBZfzM2lF6585ghwXPPY75Of9JmhqHazApO3/6458G79io7rzzzhvbRZHhVqI52eBlhPnWW29N8KRYtqPyldCM3GyhbeV7LxN8MnF5edmppxfOVBLlF+Ve1gkp4sEmH/okMhtjSUpcPk1evrzzUN5Rcsxrc1q0uUkQAw+4XE3LhV50Fnb/227fNeJ1bwoC0qBw2QL7xBNPDG6//XafqsE/5gU3flUNcaGJBgbYLNBjimU4HSoYwU3Dx/kHpoW5DriNmd8cuRFOgdGGerdTyskUjKcS4lZhFKMjs/HjYVcLR7rZxkPaGKcJQxBQxJfAM5bD9YnHCoT72Y8t1CVuE46595nyZFSBsDF16SI+D7RAk70U4C+iKe8HgcmBG3glU5cepZtmQ6dOVv7hmz+4DBVXeZFNXBny5vkzD/z1EE403jVXrnSjOOMVkjRJvka8+7XtoKCyLYqJ5SujycsQxOcflSlkz0O4+dnf93b3Po08BpicoCWfuMtkK/6Jn85og2NthKcHRnyyeI4NEiBkZCRXfHBTfxl10LBQJkifTzNKXc0FDPQB3/Xl/u5tJ27z9zxteWiUNPQCd8GwNZGGri09So8t/Kr7kzI0AlxuU+y0jDNqoDHGtOHV3BS558lz7TSnZXNUMJSJaOMWw+TmHSXJpUr0Mrvat5pQZYXaHFQY/ii3phqcweCPj8f3yCOhmuZxelFAbU2GywBNoyGLk6PN/S2deBdtudvSR3rwAI8rU1ls8zlqaLG/vCEe8THYK3tW7LpUO4Rl3e89Njzlwb03feTPO26malBgDiPAAl4iBn4T2IxCOCjCljg1qB64H3+U9zH+G8mzZJsnF+6RPslpsuOEaRXma+NUZD5dfGd6Bj6iHP0gC3y1RzKItschzOqb6JctmDE/uGkI6GUyQlOYbKWpa5MevGxtvPnmmweHH3640w+uYuMlwtMQh5sgmaZkVAQsdRSL0xb7Kg+iRbG8rFPmazwuwFBFImzBrWvPZWoFosgw7GVhC+PFUfuD00wpQx4h/VHBIYyHFowV7R07dviJQMKL0kUYZW6vGMBxCpNqAkksuji9idcYGBeg+wSJWHxGqaOwpOIpD2MACl7Ih/IT0ziGAhoKQGReRI8wCBDsLFIDR+Q1bpQCPUKG1CxG+Xql+cMFGaWRzZQY84ucxC2iqcgPBcQ8MOspGGBl+cONn4ckP1Rg6OK+ck4vUnljxS/CEZJ37oz0yu02mCLhATPhyfUEFoE49lC+8MPAcxqrOBXpAQU/wkndgfdKgz9mJC0lNh/7h2f0ZtkjXrQbKfIRHtMLhi4dEBIeQR2zQZqgD96TlBAo+jnwgzJnVxuNNfRl5SCDAu2m5M3iWwWcpOSLRpQ3Fk8pf5HuLFmJI6aRG2p9Zqok7VhwKj/8gMPT1nSiyBMyyokhhgSSKPZEOZMJZUjhMWPyo2dwwgknDH5mXwNhgQBD2GyThs8gz+myn5FAksgzkoyhJB2NQJFAivyUH9kCRlzlR3ZResUvswWjKN6sMFcY5ChlXYwrGmWzs4YDQIqrnQTCCV+ilkXx85krPsulChXjxkZQ/rI5Cv7AAw/4fmEUhIxocTkaISi6rVuSBWOO7bNAqAqvvMgWjDa2l5OSwhLlKHrLcObTKL5oJ2+cfqY3XmZQssPhcHDnnXf6aFbxgRXxyF824ezSePbZZwcvvviiN4he1oPqj/nBDa/VuDMlEsMFF3aN6hsvSUcPfHs3sUiSFj4lwCellcV7GvYHH3zQpyWKRyOpQMxymJZ/DhhiWL8qOsHtgeFH+PASj2RHv5CkshPYMnIX8UlxyuzyElAAYQJhWlcLok545RmhTIhpE7ANAoWQisvVpgiBHlYVA8yMX1ZQZpmkUM2Ok08vminTKCAKcJlR/mO+SSN/2WVwysLFx4zGogTIjfLEQx6oTDDMHqejZIoIuXDHBj3lzUt2+jbDkfCRmTSDBOgM5vLysh/YYTdCXcMhjwsuuMDnPJ1WwEK32WoAZAMb+pivPf/8833BzPNEQEcmZRuZzPBXBV2FFsnO85rKBDe9XnZ4sROGhjFrpEbcdjJUxnghHXxgXalKOY35OOCAA/wrPP/6vl2PaycoN2+2LcRkPhjlB5tFVxoYFgOHw2FSptK4oon0UVYuROJQhSyv8HSaAQaLqYwUOJlKQyNeKU3SoUjfKIeWhngvvPCCN3zoEToSlBHRpLTztLvCXa55CnIl5BIePKdw0FLX/0sQANNhmA1cCig9cB5OUXE44N5773UlLrwFpE16GTwKhsNvQN3U/ADXDHD1TCKf9CEuRrZiOIwO6fNdNODhL8UpXLJdbhbui4ppPrKwHJ3iObBwY3PE+22bf+Rk5hLphS/B6nH2AceGt8RHlueee+5gOBx6BQJO1YcKR1wacw6AOQ00nJQ7g53/Ix9brXHhe680NsSPJv8ew+q4HTf4C2jI01Tr3eBhxuCneKCdO2WY7lC9Q94kifGVnvhMqdAQEl+8xL/qw7z0uX99rt82iqAd3wTXE5qdcPuhoWHEBk3gkUl4laMV+pFnyIPiR1uw2H+9ffv2wWWXXZblgbxBVxFtNBRL1gCt2v32O3fu9BsT4QNpoiniX0JvLekVcCakJ6/2yIg30U9hVe1WPXIQo3BZLNlkldTGtFXxjsWjdYapYixCYr85N+JR8am8bNGB6WS6aoaJ6w2CLaq5wBrSN0ZseIFuaJEgwIGywkyjUTQpXGldrM3YFygKTlOeGOOq8zWEZM5VOzyjBpPeUR49tJEfbBV40QsQ/wCvzUGvkmd6aXkIRgIwyStDYY5dczWttsmJBxlBJQ7iLy8ve8+Sob7TQjYNSVhHz6AQxIeE2bnAoTFGAaQBTl3cGdDgAJb4h/KgQevSqNcrepEFdYRta2xlZHcUvHQmGy0YpREdpIX3fMqNuXGM4ClOmQ1O8HAbJXPNnHHYgrxTnPn0ooEdNSx60hETv4HlOsP0xlh6I1/1ifJEHBnJTO/Awg89cfXVV3tP+9VXX/V8LtkocgyuEsm2tHRAuDGRkQ0NgebxSQdepZftNalD0QJq7+akXoJPvAGf3CK3qt1IkQs417ZSOSlYPk83RbCKP82mJWb4BmO5EYx5cKZP2C8LDs2HVs2omMHiBvc1UJA3o9g6FAZ5AZwKlXCyi4aCS17y9MIj9sRyIgyaHEbgmRcY9+3gxwoslYbCTm8KIxpxc1AIWliY4iQmeYmKmLg8xCM/akRJKzhsa+SAy5LJz3esFDHYYCgNB0V0lYIaBg+s8ANO+MlwmDnS2CN1Pk/AMPrNj10YhEfFMBG1oQdllTMMLLptNdkmouyikEF5lAYDj+Rr99Q3zgVg4P0sRQ7PyDfz1ExFUMfgRV0jeVOXOGS1a9euwXdsL7S/cSpTyEHm6IaIc9kaYkZUUf4xHFw8xx57bJI3Ayn8kW78SEdduvHGGz2ItRq2/3qDOrUyGXzTBdDFtBsNPDqGugmfYt0UXvBMBReJquM2+tEBfNhDHYw6yfNxNxmRtSXrGUsZyd3TKIMGYDJaKIwwE8VL5UAJesOQxhC+LEFFB4qMW9F0FW4bGmehjAJH8bE1ctq2SA410FOhN0U6FchZ8JuEAZf8M7Lhvm/oyvMRuTE85y7lopJK/JifPB3sFWYBkm1dRUZ8gQ6UDl+igZ42RnnglkXKnhT0NNniT0+UShqVRxc0AIPyxUMe18KofGDTI0eZ8n1NthyyzS/mW/wWHeIVaVCMeld4VTumo/FmJxC7h9STzcMRzcgamce6QFnhkBuKVPTGPAALfUCDTwck4s7j4V3h9LLhR7yLvSi+/EjHiJ9LvlQuWHcgb8yly0/wsbs24EAuWhAGvnhSF1cjRV4XSZP4kXFNM9cEb59mbTmgitEGSxcwfsj4m9C+v3nWhGalibRHN+G8Yza6jmityMVI52ZHP10KZS3oK8tmGf3zpmkWPVVoaZte/JoFR3Gq2lXojrC6xB3h1qUjpm3qVl7q4FaapjhjurZ4q6SvS28VmDEPcufxNIUjeHXtPP666RW/tSIXoN7uOdBzoOdAz4H9w4HxvTf7h4Yea8+BngM9B3oOtOBAr8hbMK9P2nOg50DPgUXgQK/IF0EKPQ09B3oO9BxowYFekbdgXp+050DPgZ4Di8CBXpEvghR6GnoO9BzoOdCCA70ib8G8PmnPgZ4DPQcWgQO9Il8EKfQ09BzoOdBzoAUHekXegnl90p4DPQd6DiwCB3pFvghS6GnoOdBzoOdACw70irwF8/qkPQd6DvQcWAQO9Ip8EaTQ09BzoOdAz4EWHOgVeQvm9Ul7DvQc6DmwCBzoFfkiSKGnoedAz4GeAy040CvyFszrk/Yc6DnQc2AROPD/tkRXb5XQZY0AAAAASUVORK5CYII=" vertex="1" parent="fDX2wKOXSJ8dmzNtZNU6-14">
          <mxGeometry x="95.15" y="160" width="69.85" height="57.01" as="geometry" />
        </mxCell>
        <mxCell id="fDX2wKOXSJ8dmzNtZNU6-18" value="" style="sketch=0;outlineConnect=0;gradientColor=#b3b3b3;fillColor=#f5f5f5;strokeColor=#666666;dashed=0;verticalLabelPosition=bottom;verticalAlign=top;align=center;html=1;fontSize=12;fontStyle=0;aspect=fixed;pointerEvents=1;shape=mxgraph.aws4.iot_analytics_data_store;" vertex="1" parent="fDX2wKOXSJ8dmzNtZNU6-14">
          <mxGeometry x="176" y="54" width="54" height="78" as="geometry" />
        </mxCell>
        <mxCell id="fDX2wKOXSJ8dmzNtZNU6-19" value="" style="sketch=0;outlineConnect=0;fillColor=#fff2cc;strokeColor=#d6b656;dashed=0;verticalLabelPosition=bottom;verticalAlign=top;align=center;html=1;fontSize=12;fontStyle=0;aspect=fixed;pointerEvents=1;shape=mxgraph.aws4.iot_analytics_data_store;gradientColor=#ffd966;" vertex="1" parent="fDX2wKOXSJ8dmzNtZNU6-14">
          <mxGeometry x="325" y="54" width="54" height="78" as="geometry" />
        </mxCell>
        <mxCell id="fDX2wKOXSJ8dmzNtZNU6-20" value="Bronze" style="text;html=1;align=center;verticalAlign=middle;resizable=0;points=[];autosize=1;strokeColor=#6D1F00;fillColor=#a0522d;fontSize=14;fontStyle=1;fontColor=#ffffff;" vertex="1" parent="fDX2wKOXSJ8dmzNtZNU6-14">
          <mxGeometry x="25" y="20" width="60" height="20" as="geometry" />
        </mxCell>
        <mxCell id="fDX2wKOXSJ8dmzNtZNU6-21" value="Silver" style="text;html=1;align=center;verticalAlign=middle;resizable=0;points=[];autosize=1;strokeColor=#666666;fillColor=#f5f5f5;fontSize=14;fontStyle=1;gradientColor=#b3b3b3;" vertex="1" parent="fDX2wKOXSJ8dmzNtZNU6-14">
          <mxGeometry x="176" y="20" width="50" height="20" as="geometry" />
        </mxCell>
        <mxCell id="fDX2wKOXSJ8dmzNtZNU6-25" value="Raw Ingestion&lt;br&gt;and History" style="text;html=1;align=center;verticalAlign=middle;resizable=0;points=[];autosize=1;strokeColor=none;fillColor=none;" vertex="1" parent="fDX2wKOXSJ8dmzNtZNU6-14">
          <mxGeometry x="12" y="146" width="90" height="30" as="geometry" />
        </mxCell>
        <mxCell id="fDX2wKOXSJ8dmzNtZNU6-26" value="Filtered, Cleaned&lt;br&gt;Augmented" style="text;html=1;align=center;verticalAlign=middle;resizable=0;points=[];autosize=1;strokeColor=none;fillColor=none;" vertex="1" parent="fDX2wKOXSJ8dmzNtZNU6-14">
          <mxGeometry x="150" y="146" width="110" height="30" as="geometry" />
        </mxCell>
        <mxCell id="fDX2wKOXSJ8dmzNtZNU6-22" value="Gold" style="text;html=1;align=center;verticalAlign=middle;resizable=0;points=[];autosize=1;strokeColor=#d6b656;fillColor=#fff2cc;fontSize=14;fontStyle=1;gradientColor=#ffd966;" vertex="1" parent="fDX2wKOXSJ8dmzNtZNU6-14">
          <mxGeometry x="327" y="20" width="50" height="20" as="geometry" />
        </mxCell>
        <mxCell id="fDX2wKOXSJ8dmzNtZNU6-27" value="Business-level&lt;br style=&quot;font-size: 12px;&quot;&gt;Aggregates" style="text;html=1;align=center;verticalAlign=middle;resizable=0;points=[];autosize=1;strokeColor=none;fillColor=none;fontSize=12;" vertex="1" parent="fDX2wKOXSJ8dmzNtZNU6-14">
          <mxGeometry x="307" y="146" width="90" height="30" as="geometry" />
        </mxCell>
        <mxCell id="fDX2wKOXSJ8dmzNtZNU6-28" value="Curated Data" style="text;html=1;align=center;verticalAlign=middle;resizable=0;points=[];autosize=1;strokeColor=none;fillColor=none;fontSize=16;fontStyle=1" vertex="1" parent="fDX2wKOXSJ8dmzNtZNU6-14">
          <mxGeometry x="230" y="196" width="120" height="20" as="geometry" />
        </mxCell>
        <mxCell id="fDX2wKOXSJ8dmzNtZNU6-30" value="" style="edgeStyle=elbowEdgeStyle;elbow=horizontal;endArrow=classic;html=1;rounded=0;fontSize=16;" edge="1" parent="fDX2wKOXSJ8dmzNtZNU6-14">
          <mxGeometry width="50" height="50" relative="1" as="geometry">
            <mxPoint x="90" y="93" as="sourcePoint" />
            <mxPoint x="170" y="93" as="targetPoint" />
          </mxGeometry>
        </mxCell>
        <mxCell id="fDX2wKOXSJ8dmzNtZNU6-31" value="" style="edgeStyle=elbowEdgeStyle;elbow=horizontal;endArrow=classic;html=1;rounded=0;fontSize=16;" edge="1" parent="fDX2wKOXSJ8dmzNtZNU6-14">
          <mxGeometry width="50" height="50" relative="1" as="geometry">
            <mxPoint x="240" y="92.5" as="sourcePoint" />
            <mxPoint x="320" y="92.5" as="targetPoint" />
          </mxGeometry>
        </mxCell>
        <mxCell id="fDX2wKOXSJ8dmzNtZNU6-106" style="edgeStyle=none;rounded=0;orthogonalLoop=1;jettySize=auto;html=1;fontSize=12;startArrow=none;startFill=0;" edge="1" parent="1" source="fDX2wKOXSJ8dmzNtZNU6-47">
          <mxGeometry relative="1" as="geometry">
            <mxPoint x="1074" y="190" as="targetPoint" />
          </mxGeometry>
        </mxCell>
        <mxCell id="fDX2wKOXSJ8dmzNtZNU6-47" value="Azure Synapse&lt;br&gt;Analytics" style="aspect=fixed;html=1;points=[];align=center;image;fontSize=12;image=img/lib/azure2/analytics/Azure_Synapse_Analytics.svg;strokeWidth=2;fillColor=#A0522D;" vertex="1" parent="1">
          <mxGeometry x="1050" y="447.37" width="60" height="69" as="geometry" />
        </mxCell>
        <mxCell id="SZY12_XKgGBlkoAp8IEY-11" value="Power BI Premium" style="shadow=0;dashed=0;html=1;strokeColor=none;labelPosition=center;verticalLabelPosition=top;verticalAlign=bottom;align=center;shape=mxgraph.mscae.cloud.power_bi_embedded;fillColor=#000000;pointerEvents=1;" parent="1" vertex="1">
          <mxGeometry x="1050" y="130" width="47" height="50" as="geometry" />
        </mxCell>
        <mxCell id="fDX2wKOXSJ8dmzNtZNU6-57" value="" style="labelPosition=right;align=left;strokeWidth=1;shape=mxgraph.mockup.markup.curlyBrace;html=1;shadow=0;dashed=0;strokeColor=#999999;direction=north;fontSize=16;fillColor=#A0522D;rotation=-180;" vertex="1" parent="1">
          <mxGeometry x="90" y="380" width="40" height="380" as="geometry" />
        </mxCell>
        <mxCell id="fDX2wKOXSJ8dmzNtZNU6-59" style="edgeStyle=none;rounded=0;orthogonalLoop=1;jettySize=auto;html=1;exitX=1;exitY=1;exitDx=0;exitDy=-15;exitPerimeter=0;fontSize=16;startArrow=classic;startFill=1;" edge="1" parent="1">
          <mxGeometry relative="1" as="geometry">
            <mxPoint x="50" y="395" as="sourcePoint" />
            <mxPoint x="50" y="395" as="targetPoint" />
          </mxGeometry>
        </mxCell>
        <mxCell id="fDX2wKOXSJ8dmzNtZNU6-66" value="Sensors and IoT" style="sketch=0;aspect=fixed;html=1;points=[];align=center;image;fontSize=12;image=img/lib/mscae/Azure_IoT_Hub.svg;strokeWidth=2;fillColor=#A0522D;" vertex="1" parent="1">
          <mxGeometry x="24.5" y="50" width="50" height="50" as="geometry" />
        </mxCell>
        <mxCell id="fDX2wKOXSJ8dmzNtZNU6-125" style="edgeStyle=none;rounded=0;orthogonalLoop=1;jettySize=auto;html=1;fontSize=12;startArrow=none;startFill=0;" edge="1" parent="1" source="fDX2wKOXSJ8dmzNtZNU6-68">
          <mxGeometry relative="1" as="geometry">
            <mxPoint x="370" y="180" as="targetPoint" />
            <Array as="points">
              <mxPoint x="190" y="180" />
            </Array>
          </mxGeometry>
        </mxCell>
        <mxCell id="fDX2wKOXSJ8dmzNtZNU6-129" style="edgeStyle=none;rounded=0;orthogonalLoop=1;jettySize=auto;html=1;entryX=0;entryY=0.75;entryDx=0;entryDy=0;fontSize=12;startArrow=none;startFill=0;" edge="1" parent="1" source="fDX2wKOXSJ8dmzNtZNU6-68" target="fDX2wKOXSJ8dmzNtZNU6-128">
          <mxGeometry relative="1" as="geometry" />
        </mxCell>
        <mxCell id="fDX2wKOXSJ8dmzNtZNU6-68" value="Azure Data Factory" style="shape=image;verticalLabelPosition=bottom;labelBackgroundColor=#ffffff;verticalAlign=top;aspect=fixed;imageAspect=0;image=data:image/svg+xml,PHN2ZyB4bWxuczpkYz0iaHR0cDovL3B1cmwub3JnL2RjL2VsZW1lbnRzLzEuMS8iIHhtbG5zOmNjPSJodHRwOi8vY3JlYXRpdmVjb21tb25zLm9yZy9ucyMiIHhtbG5zOnJkZj0iaHR0cDovL3d3dy53My5vcmcvMTk5OS8wMi8yMi1yZGYtc3ludGF4LW5zIyIgeG1sbnM6c3ZnPSJodHRwOi8vd3d3LnczLm9yZy8yMDAwL3N2ZyIgeG1sbnM9Imh0dHA6Ly93d3cudzMub3JnLzIwMDAvc3ZnIiB4bWxuczpzb2RpcG9kaT0iaHR0cDovL3NvZGlwb2RpLnNvdXJjZWZvcmdlLm5ldC9EVEQvc29kaXBvZGktMC5kdGQiIHhtbG5zOmlua3NjYXBlPSJodHRwOi8vd3d3Lmlua3NjYXBlLm9yZy9uYW1lc3BhY2VzL2lua3NjYXBlIiB2ZXJzaW9uPSIxLjEiIGlkPSJzdmc1Njg2MSIgaW5rc2NhcGU6dmVyc2lvbj0iMC45Mi4zICgyNDA1NTQ2LCAyMDE4LTAzLTExKSIgc29kaXBvZGk6ZG9jbmFtZT0iYXp1cmVfZGF0YV9mYWN0b3J5LnN2ZyIgeD0iMHB4IiB5PSIwcHgiIHZpZXdCb3g9IjAgMCAxMDAuMSA5OS45IiB4bWw6c3BhY2U9InByZXNlcnZlIiB3aWR0aD0iMTAwLjEiIGhlaWdodD0iOTkuOTAwMDAyIj48bWV0YWRhdGEgaWQ9Im1ldGFkYXRhNjgyMyI+PHJkZjpSREY+PGNjOldvcmsgcmRmOmFib3V0PSIiPjxkYzpmb3JtYXQ+aW1hZ2Uvc3ZnK3htbDwvZGM6Zm9ybWF0PjxkYzp0eXBlIHJkZjpyZXNvdXJjZT0iaHR0cDovL3B1cmwub3JnL2RjL2RjbWl0eXBlL1N0aWxsSW1hZ2UiLz48ZGM6dGl0bGUvPjwvY2M6V29yaz48L3JkZjpSREY+PC9tZXRhZGF0YT48ZGVmcyBpZD0iZGVmczY4MjEiLz4mI3hhOzxmaWx0ZXIgaWQ9ImZpbHRlcl8yIj4mI3hhOwk8ZmVHYXVzc2lhbkJsdXIgaWQ9ImZlR2F1c3NpYW5CbHVyNTY4MTAiIHN0ZERldmlhdGlvbj0iMiIvPiYjeGE7PC9maWx0ZXI+JiN4YTs8c29kaXBvZGk6bmFtZWR2aWV3IGJvcmRlcmNvbG9yPSIjNjY2NjY2IiBib3JkZXJvcGFjaXR5PSIxIiBmaXQtbWFyZ2luLWJvdHRvbT0iMCIgZml0LW1hcmdpbi1sZWZ0PSIwIiBmaXQtbWFyZ2luLXJpZ2h0PSIwIiBmaXQtbWFyZ2luLXRvcD0iMCIgZ3JpZHRvbGVyYW5jZT0iMTAiIGd1aWRldG9sZXJhbmNlPSIxMCIgaWQ9Im5hbWVkdmlldzU2ODYzIiBpbmtzY2FwZTpjdXJyZW50LWxheWVyPSJzdmc1Njg2MSIgaW5rc2NhcGU6Y3g9Ii0yMi41MTIwNzIiIGlua3NjYXBlOmN5PSI1Ni44MTcyNzkiIGlua3NjYXBlOnBhZ2VvcGFjaXR5PSIwIiBpbmtzY2FwZTpwYWdlc2hhZG93PSIyIiBpbmtzY2FwZTp3aW5kb3ctaGVpZ2h0PSIxMDE3IiBpbmtzY2FwZTp3aW5kb3ctbWF4aW1pemVkPSIxIiBpbmtzY2FwZTp3aW5kb3ctd2lkdGg9IjE5MjAiIGlua3NjYXBlOndpbmRvdy14PSItOCIgaW5rc2NhcGU6d2luZG93LXk9Ii04IiBpbmtzY2FwZTp6b29tPSIzLjY5Njc5MDciIG9iamVjdHRvbGVyYW5jZT0iMTAiIHBhZ2Vjb2xvcj0iI2ZmZmZmZiIgc2hvd2dyaWQ9ImZhbHNlIj4mI3hhOwk8L3NvZGlwb2RpOm5hbWVkdmlldz4mI3hhOyYjeGE7PHBhdGggaWQ9InBhdGg1NjgyMyIgaW5rc2NhcGU6Y29ubmVjdG9yLWN1cnZhdHVyZT0iMCIgc3R5bGU9ImZpbGw6IzU5YjRkOSIgZD0iTSA5OS45LDU4Ljg2IFYgMzQuNjMgTCA3Mi40Nyw1OC40NiBoIC0wLjYgViAzNC42MyBMIDQ0LjQ0LDU4LjQ2IFYgOC42MSBDIDQ0LjQ0LDQuNCAzNS4wMywwLjIgMjIuNjIsMC4yIDEwLjIxLDAuMiAwLDQuMiAwLDguNjEgViA5OS45IEggMTAwLjEgWiBNIDIyLjYyLDEyLjYxIGMgLTkuMDEsMCAtMTYuMjEsLTIuMiAtMTYuMjEsLTQuNiAwLC0yLjQgNy4yLC00LjYxIDE2LjIxLC00LjYxIDkuMDEsMCAxNi4yMiwyLjAxIDE2LjIyLDQuNjEgLTAuMiwyLjQgLTcuNDEsNC42IC0xNi4yMiw0LjYgeiBNIDY5Ljg3LDgzLjY4IEggNTguODYgViA3Mi42NyBoIDExLjAxIHogbSAtMTkuNDIsMCBIIDM5LjQ0IFYgNzIuNjcgaCAxMS4wMSB6IG0gMjguMDMsMCBWIDcyLjY3IGggMTEuMDEgdiAxMS4wMSB6Ii8+JiN4YTsmI3hhOzxyZWN0IGlkPSJyZWN0NTY4MzEiIHg9IjAiIHk9IjguMDEwMDAwMiIgc3R5bGU9ImZpbGw6IzM5OTljNiIgd2lkdGg9IjIyLjIxOTk5OSIgaGVpZ2h0PSI5MS44ODk5OTkiLz4mI3hhOyYjeGE7PHBhdGggaWQ9InBhdGg1NjgzOSIgaW5rc2NhcGU6Y29ubmVjdG9yLWN1cnZhdHVyZT0iMCIgc3R5bGU9ImZpbGw6I2ZmZmZmZiIgZD0ibSA0NC4yNCw4LjAxIGMgMCw0LjQgLTEwLjAxLDguMDEgLTIyLjIyLDguMDEgQyA5LjgxLDE2LjAyIDAsMTIuNDEgMCw4LjAxIDAsMy42IDEwLjAxLDAgMjIuMjIsMCAzNC40MywwIDQ0LjI0LDMuNCA0NC4yNCw4LjAxIFoiLz4mI3hhOyYjeGE7PHBhdGggaWQ9InBhdGg1Njg0NyIgaW5rc2NhcGU6Y29ubmVjdG9yLWN1cnZhdHVyZT0iMCIgc3R5bGU9ImZpbGw6IzdmYmEwMCIgZD0ibSAzOS44Myw3LjQxIGMgMCwzIC03LjgsNS4yMSAtMTcuNjEsNS4yMSAtOS44MSwwIC0xNy42MiwtMi4yMSAtMTcuNjIsLTUuMjEgMCwtMyA3LjgxLC01LjIgMTcuNjIsLTUuMiA5LjgxLDAgMTcuNjEsMi40IDE3LjYxLDUuMiB6Ii8+JiN4YTsmI3hhOzxwYXRoIGlkPSJwYXRoNTY4NTUiIGlua3NjYXBlOmNvbm5lY3Rvci1jdXJ2YXR1cmU9IjAiIHN0eWxlPSJmaWxsOiNiOGQ0MzIiIGQ9Im0gMzYuMDMsMTAuNjEgYyAyLjQsLTAuOCAzLjYsLTIgMy42LC0zLjIxIDAsLTMgLTcuOCwtNS4yIC0xNy42MSwtNS4yIEMgMTIuMjEsMi4yIDQuNCw0LjYgNC40LDcuNCA0LjYsOC42MSA2LDkuODEgOC4yLDEwLjYxIGMgMy4yMSwtMS4yIDguMjEsLTIgMTQuMDIsLTIgNS42LDAgMTAuNjEsMC44IDEzLjgxLDIgeiIvPiYjeGE7PC9zdmc+;fontSize=16;strokeWidth=2;fillColor=#A0522D;" vertex="1" parent="1">
          <mxGeometry x="160" y="539.9999999999995" width="59" height="59" as="geometry" />
        </mxCell>
        <mxCell id="fDX2wKOXSJ8dmzNtZNU6-83" value="" style="edgeStyle=none;rounded=0;orthogonalLoop=1;jettySize=auto;html=1;fontSize=16;startArrow=none;startFill=0;endArrow=none;" edge="1" parent="1" source="fDX2wKOXSJ8dmzNtZNU6-57" target="fDX2wKOXSJ8dmzNtZNU6-68">
          <mxGeometry relative="1" as="geometry">
            <mxPoint x="130" y="523.3103448275863" as="sourcePoint" />
            <mxPoint x="374.0614545454546" y="441.6759962382446" as="targetPoint" />
          </mxGeometry>
        </mxCell>
        <mxCell id="fDX2wKOXSJ8dmzNtZNU6-124" style="edgeStyle=none;rounded=0;orthogonalLoop=1;jettySize=auto;html=1;fontSize=12;startArrow=none;startFill=0;" edge="1" parent="1" source="fDX2wKOXSJ8dmzNtZNU6-69">
          <mxGeometry relative="1" as="geometry">
            <mxPoint x="370" y="75" as="targetPoint" />
          </mxGeometry>
        </mxCell>
        <mxCell id="fDX2wKOXSJ8dmzNtZNU6-69" value="Azure Event Hubs&lt;br&gt;Azure IoT Hubs&lt;br&gt;Kafka" style="aspect=fixed;html=1;points=[];align=center;image;fontSize=12;image=img/lib/azure2/analytics/Event_Hubs.svg;strokeWidth=2;fillColor=#A0522D;" vertex="1" parent="1">
          <mxGeometry x="170" y="45" width="67" height="60" as="geometry" />
        </mxCell>
        <mxCell id="fDX2wKOXSJ8dmzNtZNU6-94" value="" style="edgeStyle=none;rounded=0;orthogonalLoop=1;jettySize=auto;html=1;fontSize=12;startArrow=none;startFill=0;endArrow=none;" edge="1" parent="1" source="fDX2wKOXSJ8dmzNtZNU6-66" target="fDX2wKOXSJ8dmzNtZNU6-69">
          <mxGeometry relative="1" as="geometry">
            <mxPoint x="80.5" y="180.29319498069503" as="sourcePoint" />
            <mxPoint x="325.2278106508875" y="330" as="targetPoint" />
          </mxGeometry>
        </mxCell>
        <mxCell id="fDX2wKOXSJ8dmzNtZNU6-103" style="edgeStyle=none;rounded=0;orthogonalLoop=1;jettySize=auto;html=1;fontSize=12;startArrow=none;startFill=0;exitX=1;exitY=0.75;exitDx=0;exitDy=0;" edge="1" parent="1" source="fDX2wKOXSJ8dmzNtZNU6-98" target="fDX2wKOXSJ8dmzNtZNU6-47">
          <mxGeometry relative="1" as="geometry">
            <mxPoint x="890" y="230" as="sourcePoint" />
          </mxGeometry>
        </mxCell>
        <mxCell id="fDX2wKOXSJ8dmzNtZNU6-105" style="edgeStyle=none;rounded=0;orthogonalLoop=1;jettySize=auto;html=1;fontSize=12;startArrow=none;startFill=0;entryX=0;entryY=0.76;entryDx=0;entryDy=0;entryPerimeter=0;" edge="1" parent="1" source="fDX2wKOXSJ8dmzNtZNU6-98" target="SZY12_XKgGBlkoAp8IEY-11">
          <mxGeometry relative="1" as="geometry">
            <mxPoint x="1040" y="180" as="targetPoint" />
          </mxGeometry>
        </mxCell>
        <mxCell id="fDX2wKOXSJ8dmzNtZNU6-98" value="DELTA ENGINE" style="swimlane;fontSize=12;strokeWidth=2;flipV=1;" vertex="1" parent="1">
          <mxGeometry x="370" y="30" width="497" height="240" as="geometry" />
        </mxCell>
        <mxCell id="SZY12_XKgGBlkoAp8IEY-2" value="" style="aspect=fixed;html=1;perimeter=none;align=center;shadow=0;dashed=0;image;fontSize=12;image=img/lib/mscae/Databricks.svg;labelPosition=center;verticalLabelPosition=bottom;verticalAlign=top;" parent="fDX2wKOXSJ8dmzNtZNU6-98" vertex="1">
          <mxGeometry x="10" y="10" width="47.5" height="50" as="geometry" />
        </mxCell>
        <mxCell id="fDX2wKOXSJ8dmzNtZNU6-40" style="edgeStyle=none;rounded=0;orthogonalLoop=1;jettySize=auto;html=1;exitX=0;exitY=0;exitDx=0;exitDy=0;fontSize=16;" edge="1" parent="fDX2wKOXSJ8dmzNtZNU6-98" source="SZY12_XKgGBlkoAp8IEY-2" target="SZY12_XKgGBlkoAp8IEY-2">
          <mxGeometry relative="1" as="geometry" />
        </mxCell>
        <mxCell id="fDX2wKOXSJ8dmzNtZNU6-55" style="edgeStyle=none;rounded=0;orthogonalLoop=1;jettySize=auto;html=1;exitX=0;exitY=0;exitDx=0;exitDy=0;fontSize=16;startArrow=classic;startFill=1;" edge="1" parent="fDX2wKOXSJ8dmzNtZNU6-98" source="SZY12_XKgGBlkoAp8IEY-2" target="SZY12_XKgGBlkoAp8IEY-2">
          <mxGeometry relative="1" as="geometry" />
        </mxCell>
        <mxCell id="fDX2wKOXSJ8dmzNtZNU6-107" value="Notebooks" style="swimlane;fontSize=12;strokeWidth=2;" vertex="1" parent="fDX2wKOXSJ8dmzNtZNU6-98">
          <mxGeometry x="80" y="10" width="100" height="90" as="geometry" />
        </mxCell>
        <mxCell id="fDX2wKOXSJ8dmzNtZNU6-108" value="Python&lt;br&gt;SQL&lt;br&gt;Scala&lt;br&gt;R" style="text;html=1;align=left;verticalAlign=middle;resizable=0;points=[];autosize=1;strokeColor=none;fillColor=none;fontSize=12;" vertex="1" parent="fDX2wKOXSJ8dmzNtZNU6-107">
          <mxGeometry x="29" y="30" width="50" height="60" as="geometry" />
        </mxCell>
        <mxCell id="fDX2wKOXSJ8dmzNtZNU6-109" value="Delta Ingestion" style="swimlane;fontSize=12;strokeWidth=2;" vertex="1" parent="fDX2wKOXSJ8dmzNtZNU6-98">
          <mxGeometry x="200" y="10" width="100" height="90" as="geometry" />
        </mxCell>
        <mxCell id="fDX2wKOXSJ8dmzNtZNU6-110" value="Auto Loader&lt;br&gt;COPY INTO&lt;br&gt;ADF Copy" style="text;html=1;align=left;verticalAlign=middle;resizable=0;points=[];autosize=1;strokeColor=none;fillColor=none;fontSize=12;" vertex="1" parent="fDX2wKOXSJ8dmzNtZNU6-109">
          <mxGeometry y="35" width="80" height="50" as="geometry" />
        </mxCell>
        <mxCell id="fDX2wKOXSJ8dmzNtZNU6-112" value="" style="swimlane;startSize=0;fontSize=12;strokeWidth=2;fillColor=#A0522D;" vertex="1" parent="fDX2wKOXSJ8dmzNtZNU6-98">
          <mxGeometry x="312.92" y="10" width="95" height="30" as="geometry" />
        </mxCell>
        <mxCell id="fDX2wKOXSJ8dmzNtZNU6-113" value="Job Scheduler" style="text;html=1;align=center;verticalAlign=middle;resizable=0;points=[];autosize=1;strokeColor=none;fillColor=none;fontSize=12;fontStyle=1" vertex="1" parent="fDX2wKOXSJ8dmzNtZNU6-112">
          <mxGeometry x="-5" y="5" width="100" height="20" as="geometry" />
        </mxCell>
        <mxCell id="fDX2wKOXSJ8dmzNtZNU6-114" value="" style="swimlane;startSize=0;fontSize=12;strokeWidth=2;fillColor=#A0522D;" vertex="1" parent="fDX2wKOXSJ8dmzNtZNU6-98">
          <mxGeometry x="313" y="50" width="132.08" height="90" as="geometry" />
        </mxCell>
        <mxCell id="fDX2wKOXSJ8dmzNtZNU6-115" value="&lt;h4 style=&quot;box-sizing: inherit ; margin-top: 0px ; margin-bottom: 0.625rem ; line-height: 1.2 ; color: rgb(33 , 37 , 41) ; font-family: &amp;#34;barlow&amp;#34; , &amp;#34;helvetica&amp;#34; , &amp;#34;arial&amp;#34; , sans-serif ; text-align: left ; background-color: rgb(255 , 255 , 255)&quot;&gt;&lt;font style=&quot;font-size: 12px&quot;&gt;Delta Live Tables&lt;/font&gt;&lt;/h4&gt;&lt;h4 style=&quot;box-sizing: inherit ; margin-top: 0px ; margin-bottom: 0.625rem ; line-height: 1.2 ; color: rgb(33 , 37 , 41) ; font-family: &amp;#34;barlow&amp;#34; , &amp;#34;helvetica&amp;#34; , &amp;#34;arial&amp;#34; , sans-serif ; text-align: left ; background-color: rgb(255 , 255 , 255)&quot;&gt;&lt;font style=&quot;font-size: 12px ; font-weight: normal&quot;&gt;- ETL pipelines&lt;/font&gt;&lt;/h4&gt;&lt;h4 style=&quot;box-sizing: inherit ; margin-top: 0px ; margin-bottom: 0.625rem ; line-height: 1.2 ; color: rgb(33 , 37 , 41) ; font-family: &amp;#34;barlow&amp;#34; , &amp;#34;helvetica&amp;#34; , &amp;#34;arial&amp;#34; , sans-serif ; text-align: left ; background-color: rgb(255 , 255 , 255)&quot;&gt;&lt;font style=&quot;font-size: 12px ; font-weight: normal&quot;&gt;(in preview)&lt;/font&gt;&lt;/h4&gt;" style="text;html=1;align=center;verticalAlign=middle;resizable=0;points=[];autosize=1;strokeColor=none;fillColor=none;fontSize=12;" vertex="1" parent="fDX2wKOXSJ8dmzNtZNU6-114">
          <mxGeometry y="10" width="110" height="80" as="geometry" />
        </mxCell>
        <mxCell id="fDX2wKOXSJ8dmzNtZNU6-122" value="Table versioning" style="swimlane;fontSize=12;strokeWidth=2;" vertex="1" parent="fDX2wKOXSJ8dmzNtZNU6-98">
          <mxGeometry x="55" y="110" width="150" height="90" as="geometry" />
        </mxCell>
        <mxCell id="fDX2wKOXSJ8dmzNtZNU6-123" value="&lt;h1 id=&quot;change-data-feed&quot; style=&quot;box-sizing: inherit ; margin: -10px 0px 0px ; padding: 0px ; outline-color: inherit ; overflow-wrap: break-word ; line-height: 1.3 ; word-break: break-word ; background-color: rgb(255 , 255 , 255)&quot;&gt;&lt;span style=&quot;font-size: 12px ; font-weight: normal ; color: rgb(23 , 23 , 23) ; font-family: &amp;#34;segoe ui&amp;#34; , &amp;#34;segoeui&amp;#34; , &amp;#34;helvetica neue&amp;#34; , &amp;#34;helvetica&amp;#34; , &amp;#34;arial&amp;#34; , sans-serif&quot;&gt;Time travel&lt;/span&gt;&lt;/h1&gt;&lt;h1 id=&quot;change-data-feed&quot; style=&quot;box-sizing: inherit ; margin: -10px 0px 0px ; padding: 0px ; outline-color: inherit ; overflow-wrap: break-word ; line-height: 1.3 ; word-break: break-word ; background-color: rgb(255 , 255 , 255)&quot;&gt;&lt;span style=&quot;font-size: 12px ; font-weight: normal ; color: rgb(23 , 23 , 23) ; font-family: &amp;#34;segoe ui&amp;#34; , &amp;#34;segoeui&amp;#34; , &amp;#34;helvetica neue&amp;#34; , &amp;#34;helvetica&amp;#34; , &amp;#34;arial&amp;#34; , sans-serif&quot;&gt;Change data feed&lt;/span&gt;&lt;br&gt;&lt;/h1&gt;" style="text;html=1;align=left;verticalAlign=middle;resizable=0;points=[];autosize=1;strokeColor=none;fillColor=none;fontSize=12;fontStyle=1" vertex="1" parent="fDX2wKOXSJ8dmzNtZNU6-122">
          <mxGeometry y="30" width="110" height="50" as="geometry" />
        </mxCell>
        <mxCell id="fDX2wKOXSJ8dmzNtZNU6-104" value="" style="shape=doubleArrow;direction=south;whiteSpace=wrap;html=1;fontSize=12;strokeWidth=2;fillColor=#A0522D;" vertex="1" parent="1">
          <mxGeometry x="585" y="270" width="60" height="60" as="geometry" />
        </mxCell>
        <mxCell id="fDX2wKOXSJ8dmzNtZNU6-117" value="&lt;font style=&quot;font-size: 12px&quot;&gt;Logs&lt;/font&gt;" style="sketch=0;pointerEvents=1;shadow=0;dashed=0;html=1;strokeColor=none;fillColor=#434445;aspect=fixed;labelPosition=center;verticalLabelPosition=bottom;verticalAlign=top;align=center;outlineConnect=0;shape=mxgraph.vvd.log_files;fontSize=16;" vertex="1" parent="1">
          <mxGeometry x="30.5" y="410" width="40" height="50" as="geometry" />
        </mxCell>
        <mxCell id="fDX2wKOXSJ8dmzNtZNU6-118" value="&lt;font style=&quot;font-size: 12px&quot;&gt;Databases&lt;/font&gt;" style="shape=cylinder3;whiteSpace=wrap;html=1;boundedLbl=1;backgroundOutline=1;size=15;fontSize=16;strokeWidth=2;labelPosition=center;verticalLabelPosition=bottom;align=center;verticalAlign=top;" vertex="1" parent="1">
          <mxGeometry x="31" y="510" width="42" height="64" as="geometry" />
        </mxCell>
        <mxCell id="fDX2wKOXSJ8dmzNtZNU6-119" value="Media" style="sketch=0;aspect=fixed;html=1;points=[];align=center;image;fontSize=12;image=img/lib/mscae/Azure_Media_Player.svg;strokeWidth=2;fillColor=#A0522D;" vertex="1" parent="1">
          <mxGeometry x="27" y="700" width="45" height="50" as="geometry" />
        </mxCell>
        <mxCell id="fDX2wKOXSJ8dmzNtZNU6-120" value="Files" style="shape=image;verticalLabelPosition=bottom;labelBackgroundColor=#ffffff;verticalAlign=top;aspect=fixed;imageAspect=0;image=data:image/svg+xml,PHN2ZyB4bWxuczpjYz0iaHR0cDovL2NyZWF0aXZlY29tbW9ucy5vcmcvbnMjIiB4bWxuczpkYz0iaHR0cDovL3B1cmwub3JnL2RjL2VsZW1lbnRzLzEuMS8iIHhtbG5zOmlua3NjYXBlPSJodHRwOi8vd3d3Lmlua3NjYXBlLm9yZy9uYW1lc3BhY2VzL2lua3NjYXBlIiB4bWxuczpyZGY9Imh0dHA6Ly93d3cudzMub3JnLzE5OTkvMDIvMjItcmRmLXN5bnRheC1ucyMiIHhtbG5zOnNvZGlwb2RpPSJodHRwOi8vc29kaXBvZGkuc291cmNlZm9yZ2UubmV0L0RURC9zb2RpcG9kaS0wLmR0ZCIgeG1sbnM6c3ZnPSJodHRwOi8vd3d3LnczLm9yZy8yMDAwL3N2ZyIgeG1sbnM9Imh0dHA6Ly93d3cudzMub3JnLzIwMDAvc3ZnIiB4bWxuczp4bGluaz0iaHR0cDovL3d3dy53My5vcmcvMTk5OS94bGluayIgdmVyc2lvbj0iMS4xIiBpZD0ic3ZnNDUyOTgiIGlua3NjYXBlOnZlcnNpb249IjAuOTIuMyAoMjQwNTU0NiwgMjAxOC0wMy0xMSkiIHNvZGlwb2RpOmRvY25hbWU9ImZpbGVzLnN2ZyIgeD0iMHB4IiB5PSIwcHgiIHZpZXdCb3g9IjAgMCAzMy45OSAzOS4wNiIgc3R5bGU9ImVuYWJsZS1iYWNrZ3JvdW5kOm5ldyAwIDAgMzMuOTkgMzkuMDY7IiB4bWw6c3BhY2U9InByZXNlcnZlIj4mI3hhOzxzb2RpcG9kaTpuYW1lZHZpZXcgYm9yZGVyY29sb3I9IiM2NjY2NjYiIGJvcmRlcm9wYWNpdHk9IjEiIGZpdC1tYXJnaW4tYm90dG9tPSIwIiBmaXQtbWFyZ2luLWxlZnQ9IjAiIGZpdC1tYXJnaW4tcmlnaHQ9IjAiIGZpdC1tYXJnaW4tdG9wPSIwIiBncmlkdG9sZXJhbmNlPSIxMCIgZ3VpZGV0b2xlcmFuY2U9IjEwIiBpZD0ibmFtZWR2aWV3NDUzMDAiIGlua3NjYXBlOmN1cnJlbnQtbGF5ZXI9InN2ZzQ1Mjk4IiBpbmtzY2FwZTpjeD0iMjIuNjYyNTYxIiBpbmtzY2FwZTpjeT0iMjYuMjExMjIiIGlua3NjYXBlOnBhZ2VvcGFjaXR5PSIwIiBpbmtzY2FwZTpwYWdlc2hhZG93PSIyIiBpbmtzY2FwZTp3aW5kb3ctaGVpZ2h0PSIxMDE3IiBpbmtzY2FwZTp3aW5kb3ctbWF4aW1pemVkPSIxIiBpbmtzY2FwZTp3aW5kb3ctd2lkdGg9IjE5MjAiIGlua3NjYXBlOndpbmRvdy14PSItOCIgaW5rc2NhcGU6d2luZG93LXk9Ii04IiBpbmtzY2FwZTp6b29tPSIxNS45Mjg0OTYiIG9iamVjdHRvbGVyYW5jZT0iMTAiIHBhZ2Vjb2xvcj0iI2ZmZmZmZiIgc2hvd2dyaWQ9ImZhbHNlIj4mI3hhOwk8L3NvZGlwb2RpOm5hbWVkdmlldz4mI3hhOzxnIGlkPSJnNDUyOTYiIHRyYW5zZm9ybT0idHJhbnNsYXRlKC0wLjc1LC0xLjAwNzY5KSI+JiN4YTsJPHRpdGxlIGlkPSJ0aXRsZTQ1MjExIj5QYWdlLTE8L3RpdGxlPiYjeGE7CTxnIGlkPSJncm91cDQ1NjMtMSIgdHJhbnNmb3JtPSJ0cmFuc2xhdGUoMS41LC0xLjUpIj4mI3hhOwkJPHRpdGxlIGlkPSJ0aXRsZTQ1MjEzIj5GaWxlczwvdGl0bGU+JiN4YTsJCTxnIGlkPSJncm91cDQ1NjQtMiIgdHJhbnNmb3JtPSJ0cmFuc2xhdGUoMCwtNi4wOTIzMSkiPiYjeGE7CQkJPHRpdGxlIGlkPSJ0aXRsZTQ1MjE1Ij5nMTU5MTA8L3RpdGxlPiYjeGE7CQkJPGcgaWQ9InNoYXBlNDU2NS0zIiB0cmFuc2Zvcm09InRyYW5zbGF0ZSgxMy4yLC0yMS44MzA4KSI+JiN4YTsJCQkJPHRpdGxlIGlkPSJ0aXRsZTQ1MjE3Ij5wb2x5Z29uMTU5MDA8L3RpdGxlPiYjeGE7CQkJCTxwYXRoIGlkPSJwYXRoNDUyMTkiIGlua3NjYXBlOmNvbm5lY3Rvci1jdXJ2YXR1cmU9IjAiIHN0eWxlPSJmaWxsOiNFNUU1RTU7IiBkPSJNMTAuNjYsNDAuODJIMFYzMC42N0wxMC42Niw0MC44MnoiLz4mI3hhOwkJCTwvZz4mI3hhOwkJCTxnIGlkPSJzaGFwZTQ1NjYtNSIgdHJhbnNmb3JtPSJ0cmFuc2xhdGUoMS4wMTUzOCwtMS4wMTUzOCkiPiYjeGE7CQkJCTx0aXRsZSBpZD0idGl0bGU0NTIyMiI+cmVjdDE1OTAyPC90aXRsZT4mI3hhOwkJCQk8cmVjdCBpZD0icmVjdDQ1MjI0IiB4PSIwIiB5PSIxMC4zNiIgc3R5bGU9ImZpbGw6I0ZGRkZGRjsiIHdpZHRoPSIxMi4xOCIgaGVpZ2h0PSIzMC40NiIvPiYjeGE7CQkJPC9nPiYjeGE7CQkJPGcgaWQ9InNoYXBlNDU2Ny03Ij4mI3hhOwkJCQk8dGl0bGUgaWQ9InRpdGxlNDUyMjciPnBhdGgxNTkwNDwvdGl0bGU+JiN4YTsJCQkJJiN4YTsJCQkJCTxwYXRoIGlkPSJwYXRoNDUyMjkiIGlua3NjYXBlOmNvbm5lY3Rvci1jdXJ2YXR1cmU9IjAiIHN0eWxlPSJmaWxsOm5vbmU7c3Ryb2tlOiM1NTZBOEE7c3Ryb2tlLXdpZHRoOjEuNTtzdHJva2UtbWl0ZXJsaW1pdDozOyIgZD0iICAgICAgTTEzLjE0LDkuMzVIMC41MUMwLjIzLDkuMzUsMCw5LjU4LDAsOS44NmwwLDMwLjQ2YzAsMC4yOCwwLjIzLDAuNTEsMC41MSwwLjUxbDIyLjM0LTAuMDFjMC4yOCwwLDAuNTEtMC4yMywwLjUxLTAuNTEgICAgICBsLTAuMDEtMjEuMTNMMTMuMTQsOS4zNXoiLz4mI3hhOwkJCTwvZz4mI3hhOwkJCTxnIGlkPSJzaGFwZTQ1NjgtOSIgdHJhbnNmb3JtPSJ0cmFuc2xhdGUoMC41MDc2OTIsLTAuNTA3NjkyKSI+JiN4YTsJCQkJPHRpdGxlIGlkPSJ0aXRsZTQ1MjMyIj5yZWN0MTU5MDY8L3RpdGxlPiYjeGE7CQkJCTxyZWN0IGlkPSJyZWN0NDUyMzQiIHg9IjAiIHk9IjEwLjM2IiBzdHlsZT0iZmlsbDojRTVFNUU1OyIgd2lkdGg9IjguMTIiIGhlaWdodD0iMzAuNDYiLz4mI3hhOwkJCTwvZz4mI3hhOwkJCTxnIGlkPSJzaGFwZTQ1NjktMTEiIHRyYW5zZm9ybT0idHJhbnNsYXRlKDEzLjIsLTIxLjU3NjkpIj4mI3hhOwkJCQk8dGl0bGUgaWQ9InRpdGxlNDUyMzciPnBvbHlsaW5lMTU5MDg8L3RpdGxlPiYjeGE7CQkJCTxwYXRoIGlkPSJwYXRoNDUyMzkiIGlua3NjYXBlOmNvbm5lY3Rvci1jdXJ2YXR1cmU9IjAiIHN0eWxlPSJmaWxsOm5vbmU7IiBkPSJNMCwzMC42N3YxMC4xNWgxMC42NkwwLDMwLjY3eiIvPiYjeGE7CQkJCSYjeGE7CQkJCQk8cGF0aCBpZD0icGF0aDQ1MjQxIiBpbmtzY2FwZTpjb25uZWN0b3ItY3VydmF0dXJlPSIwIiBzdHlsZT0iZmlsbDpub25lO3N0cm9rZTojNTU2QThBO3N0cm9rZS13aWR0aDoxLjU7c3Ryb2tlLW1pdGVybGltaXQ6MzsiIGQ9IiAgICAgIE0wLDMwLjY3djEwLjE1aDEwLjY2Ii8+JiN4YTsJCQk8L2c+JiN4YTsJCTwvZz4mI3hhOwkJPGcgaWQ9Imdyb3VwNDU3MC0xNCIgdHJhbnNmb3JtPSJ0cmFuc2xhdGUoOS4xMzg0NikiPiYjeGE7CQkJPHRpdGxlIGlkPSJ0aXRsZTQ1MjQ1Ij5nMTU5MzA8L3RpdGxlPiYjeGE7CQkJPGcgaWQ9InNoYXBlNDU3MS0xNSI+JiN4YTsJCQkJPHRpdGxlIGlkPSJ0aXRsZTQ1MjQ3Ij5wb2x5Z29uMTU5MTI8L3RpdGxlPiYjeGE7CQkJCTxwYXRoIGlkPSJwYXRoNDUyNDkiIGlua3NjYXBlOmNvbm5lY3Rvci1jdXJ2YXR1cmU9IjAiIHN0eWxlPSJmaWxsOiNGRkZGRkY7IiBkPSJNMjMuODYsNDAuODJIMFY4Ljg0aDEzLjM1bDEwLjUxLDEwLjAxVjQwLjgyeiIvPiYjeGE7CQkJPC9nPiYjeGE7CQkJPGcgaWQ9InNoYXBlNDU3Mi0xNyIgdHJhbnNmb3JtPSJ0cmFuc2xhdGUoMTMuMiwtMjEuODMwOCkiPiYjeGE7CQkJCTx0aXRsZSBpZD0idGl0bGU0NTI1MiI+cG9seWdvbjE1OTE0PC90aXRsZT4mI3hhOwkJCQk8cGF0aCBpZD0icGF0aDQ1MjU0IiBpbmtzY2FwZTpjb25uZWN0b3ItY3VydmF0dXJlPSIwIiBzdHlsZT0iZmlsbDojNTVEMkY2OyIgZD0iTTEwLjY2LDQwLjgySDBWMzAuNjdMMTAuNjYsNDAuODJ6Ii8+JiN4YTsJCQk8L2c+JiN4YTsJCQk8ZyBpZD0ic2hhcGU0NTczLTE5Ij4mI3hhOwkJCQk8dGl0bGUgaWQ9InRpdGxlNDUyNTciPnBhdGgxNTkxNjwvdGl0bGU+JiN4YTsJCQkJJiN4YTsJCQkJCTxwYXRoIGlkPSJwYXRoNDUyNTkiIGlua3NjYXBlOmNvbm5lY3Rvci1jdXJ2YXR1cmU9IjAiIHN0eWxlPSJmaWxsOm5vbmU7c3Ryb2tlOiM1NTZBOEE7c3Ryb2tlLXdpZHRoOjEuNTtzdHJva2UtbWl0ZXJsaW1pdDozOyIgZD0iICAgICAgTTEzLjM5LDkuMzVIMC43NEMwLjQ3LDkuMzUsMCw5LjMxLDAsOS41OHYzMC41YzAuMDksMC4zNiwwLjM4LDAuNjUsMC43NCwwLjc0aDIyLjM4YzAuMjcsMCwwLjIzLTAuNDcsMC4yMy0wLjc0VjE4LjkzICAgICAgTDEzLjM5LDkuMzV6Ii8+JiN4YTsJCQk8L2c+JiN4YTsJCQk8ZyBpZD0ic2hhcGU0NTc0LTIxIiB0cmFuc2Zvcm09InRyYW5zbGF0ZSgwLjUwNzY5MiwtMC41MDc2OTIpIj4mI3hhOwkJCQk8dGl0bGUgaWQ9InRpdGxlNDUyNjIiPnJlY3QxNTkxODwvdGl0bGU+JiN4YTsJCQkJPHJlY3QgaWQ9InJlY3Q0NTI2NCIgeD0iMCIgeT0iMTAuMzYiIHN0eWxlPSJmaWxsOiNFNUU1RTU7IiB3aWR0aD0iOC4xMiIgaGVpZ2h0PSIzMC40NiIvPiYjeGE7CQkJPC9nPiYjeGE7CQkJPGcgaWQ9InNoYXBlNDU3NS0yMyIgdHJhbnNmb3JtPSJ0cmFuc2xhdGUoMTIuNjkyMywtMjEuMzIzMSkiPiYjeGE7CQkJCTx0aXRsZSBpZD0idGl0bGU0NTI2NyI+cG9seWxpbmUxNTkyMDwvdGl0bGU+JiN4YTsJCQkJPHBhdGggaWQ9InBhdGg0NTI2OSIgaW5rc2NhcGU6Y29ubmVjdG9yLWN1cnZhdHVyZT0iMCIgc3R5bGU9ImZpbGw6bm9uZTsiIGQ9Ik0wLDMwLjY3djEwLjE1aDEwLjY2TDAsMzAuNjd6Ii8+JiN4YTsJCQkJJiN4YTsJCQkJCTxwYXRoIGlkPSJwYXRoNDUyNzEiIGlua3NjYXBlOmNvbm5lY3Rvci1jdXJ2YXR1cmU9IjAiIHN0eWxlPSJmaWxsOm5vbmU7c3Ryb2tlOiM1NTZBOEE7c3Ryb2tlLXdpZHRoOjEuNTtzdHJva2UtbWl0ZXJsaW1pdDozOyIgZD0iICAgICAgTTAsMzAuNjd2MTAuMTVoMTAuNjYiLz4mI3hhOwkJCTwvZz4mI3hhOwkJCTxnIGlkPSJzaGFwZTQ1NzYtMjYiIHRyYW5zZm9ybT0idHJhbnNsYXRlKDMuNTUzODUsLTIwLjgxNTQpIj4mI3hhOwkJCQk8dGl0bGUgaWQ9InRpdGxlNDUyNzQiPmxpbmUxNTkyMjwvdGl0bGU+JiN4YTsJCQkJJiN4YTsJCQkJCTxwYXRoIGlkPSJwYXRoNDUyNzYiIGlua3NjYXBlOmNvbm5lY3Rvci1jdXJ2YXR1cmU9IjAiIHN0eWxlPSJmaWxsOm5vbmU7c3Ryb2tlOiNBN0E5QUM7c3Ryb2tlLXdpZHRoOjEuNTtzdHJva2UtbWl0ZXJsaW1pdDozOyIgZD0iICAgICAgTTAsNDAuODJoNi42Ii8+JiN4YTsJCQk8L2c+JiN4YTsJCQk8ZyBpZD0ic2hhcGU0NTc3LTI5IiB0cmFuc2Zvcm09InRyYW5zbGF0ZSgzLjU1Mzg1LC0xNi4yNDYyKSI+JiN4YTsJCQkJPHRpdGxlIGlkPSJ0aXRsZTQ1Mjc5Ij5saW5lMTU5MjQ8L3RpdGxlPiYjeGE7CQkJCSYjeGE7CQkJCQk8cGF0aCBpZD0icGF0aDQ1MjgxIiBpbmtzY2FwZTpjb25uZWN0b3ItY3VydmF0dXJlPSIwIiBzdHlsZT0iZmlsbDpub25lO3N0cm9rZTojQTdBOUFDO3N0cm9rZS13aWR0aDoxLjU7c3Ryb2tlLW1pdGVybGltaXQ6MzsiIGQ9IiAgICAgIE0wLDQwLjgyaDE2LjI1Ii8+JiN4YTsJCQk8L2c+JiN4YTsJCQk8ZyBpZD0ic2hhcGU0NTc4LTMyIiB0cmFuc2Zvcm09InRyYW5zbGF0ZSgzLjU1Mzg1LC0xMS42NzY5KSI+JiN4YTsJCQkJPHRpdGxlIGlkPSJ0aXRsZTQ1Mjg0Ij5saW5lMTU5MjY8L3RpdGxlPiYjeGE7CQkJCSYjeGE7CQkJCQk8cGF0aCBpZD0icGF0aDQ1Mjg2IiBpbmtzY2FwZTpjb25uZWN0b3ItY3VydmF0dXJlPSIwIiBzdHlsZT0iZmlsbDpub25lO3N0cm9rZTojQTdBOUFDO3N0cm9rZS13aWR0aDoxLjU7c3Ryb2tlLW1pdGVybGltaXQ6MzsiIGQ9IiAgICAgIE0wLDQwLjgyaDE2LjI1Ii8+JiN4YTsJCQk8L2c+JiN4YTsJCQk8ZyBpZD0ic2hhcGU0NTc5LTM1IiB0cmFuc2Zvcm09InRyYW5zbGF0ZSgzLjU1Mzg1LC03LjEwNzY5KSI+JiN4YTsJCQkJPHRpdGxlIGlkPSJ0aXRsZTQ1Mjg5Ij5saW5lMTU5Mjg8L3RpdGxlPiYjeGE7CQkJCSYjeGE7CQkJCQk8cGF0aCBpZD0icGF0aDQ1MjkxIiBpbmtzY2FwZTpjb25uZWN0b3ItY3VydmF0dXJlPSIwIiBzdHlsZT0iZmlsbDpub25lO3N0cm9rZTojQTdBOUFDO3N0cm9rZS13aWR0aDoxLjU7c3Ryb2tlLW1pdGVybGltaXQ6MzsiIGQ9IiAgICAgIE0wLDQwLjgyaDE2LjI1Ii8+JiN4YTsJCQk8L2c+JiN4YTsJCTwvZz4mI3hhOwk8L2c+JiN4YTs8L2c+JiN4YTs8L3N2Zz4=;fontSize=12;strokeWidth=2;fillColor=#A0522D;" vertex="1" parent="1">
          <mxGeometry x="36.5" y="610" width="34" height="39" as="geometry" />
        </mxCell>
        <mxCell id="fDX2wKOXSJ8dmzNtZNU6-130" style="edgeStyle=none;rounded=0;orthogonalLoop=1;jettySize=auto;html=1;fontSize=12;startArrow=none;startFill=0;" edge="1" parent="1" source="fDX2wKOXSJ8dmzNtZNU6-128">
          <mxGeometry relative="1" as="geometry">
            <mxPoint x="370" y="230" as="targetPoint" />
            <Array as="points">
              <mxPoint x="310" y="230" />
            </Array>
          </mxGeometry>
        </mxCell>
        <mxCell id="fDX2wKOXSJ8dmzNtZNU6-128" value="Landing Zone&#xa;(optional)" style="swimlane;fontSize=12;strokeWidth=2;align=center;startSize=35;" vertex="1" parent="1">
          <mxGeometry x="250" y="375" width="120" height="165" as="geometry" />
        </mxCell>
        <mxCell id="fDX2wKOXSJ8dmzNtZNU6-131" value="&lt;span style=&quot;color: rgb(35 , 47 , 62) ; background-color: rgb(248 , 249 , 250)&quot;&gt;Raw Ingestion&lt;/span&gt;&lt;br style=&quot;color: rgb(35 , 47 , 62) ; background-color: rgb(248 , 249 , 250)&quot;&gt;&lt;span style=&quot;color: rgb(35 , 47 , 62) ; background-color: rgb(248 , 249 , 250)&quot;&gt;(csv, txt, json)&lt;/span&gt;" style="sketch=0;aspect=fixed;html=1;points=[];align=center;image;fontSize=12;image=img/lib/mscae/Data_Lake_Store.svg;strokeWidth=2;fillColor=#A0522D;" vertex="1" parent="fDX2wKOXSJ8dmzNtZNU6-128">
          <mxGeometry x="30" y="63" width="50" height="39" as="geometry" />
        </mxCell>
      </root>
    </mxGraphModel>
  </diagram>
</mxfile>
